<?xml version="1.0" standalone="no"?>
<!DOCTYPE svg PUBLIC "-//W3C//DTD SVG 1.1//EN" "http://www.w3.org/Graphics/SVG/1.1/DTD/svg11.dtd" >
<svg xmlns="http://www.w3.org/2000/svg" xmlns:xlink="http://www.w3.org/1999/xlink" version="1.1">
<metadata></metadata>
<defs>
<font id="xayaxregular" horiz-adv-x="614" >
<font-face units-per-em="2048" ascent="1638" descent="-410" />
<missing-glyph horiz-adv-x="500" />
<glyph horiz-adv-x="0" />
<glyph horiz-adv-x="682" />
<glyph unicode=" " />
<glyph unicode="!" horiz-adv-x="323" d="M76 94q0 84 82 84q88 0 88 -84q0 -88 -88 -88q-82 0 -82 88zM78 995v574h164v-328q0 -205 -6.5 -406.5t-34.5 -404.5h-84q-20 141 -29.5 282.5t-9.5 282.5z" />
<glyph unicode="&#x22;" horiz-adv-x="569" d="M82 1464q0 68 23.5 80t60.5 12q18 0 33.5 -2t27 -10t18.5 -27.5t7 -52.5q0 -31 -7 -73.5t-18.5 -81.5t-27 -67t-33.5 -28q-20 0 -35.5 27t-27 66t-16.5 82t-5 75zM307 1466q0 35 6 53.5t17.5 27.5t27 10.5t33.5 1.5t33.5 -1.5t27 -10.5t18.5 -27.5t7 -53.5 q0 -31 -7 -73.5t-18.5 -81.5t-26.5 -65.5t-34 -26.5q-20 0 -35.5 26.5t-27 64.5t-16.5 81t-5 75z" />
<glyph unicode="#" horiz-adv-x="999" d="M59 883q0 113 40 189.5t104.5 122.5t145.5 66.5t163 20.5q76 0 145.5 -15.5t125 -45t93 -74.5t50.5 -103h-166q-2 14 -21.5 27.5t-49.5 23t-68.5 14.5t-79.5 5q-45 0 -92.5 -7t-89.5 -27.5t-76.5 -55.5t-55.5 -90q-8 -18 -8 -45q0 -61 68 -107q25 147 30 271l168 -33 q-4 -59 -10 -116.5t-14 -119.5q8 0 33.5 7.5t50.5 15.5q6 51 11 89t10 65.5t9.5 50t8.5 47.5l166 -47q-4 -39 -10.5 -85t-14.5 -104q86 -23 143.5 -112.5t57.5 -231.5q-2 -92 -10.5 -179t-31 -154.5t-64.5 -107.5t-109 -40q-96 0 -148 63q-35 -41 -64.5 -51t-70.5 -10 q-104 0 -156.5 73.5t-52.5 211.5q0 72 10.5 153.5t26.5 173.5q-197 76 -197 271zM383 260q0 -39 6 -68.5t19 -29.5q29 0 47 58.5t30.5 136t19.5 153.5t13 111q-47 -19 -88 -19q-18 -98 -32.5 -186t-14.5 -156zM662 313q0 -61 8 -110t20 -49q8 0 25 53q18 70 26.5 101.5 t11.5 53t3 44t4 71.5q2 10 2 20.5v20.5q0 51 -12.5 92t-51.5 45q-4 -10 -6 -21.5t-2 -19.5q-2 -10 -3 -19t-3 -20l-4 -36q-8 -61 -13 -119t-5 -107z" />
<glyph unicode="$" horiz-adv-x="565" d="M31 1419q0 137 108 137h99v74h106v-74h135q-2 -29 -2 -52v-48q0 -35 3 -68.5t14 -70.5l12 -66l-47 -10q-10 51 -16.5 81t-16.5 47t-28.5 23.5t-53.5 12.5v-195q84 -61 117 -149t33 -213q0 -137 -35 -282.5t-94 -286.5l-21 -50v-295h-106v72l-7 -6h-194q41 53 87 150.5 t114 228.5v741l-50 17q-76 41 -116.5 111.5t-40.5 170.5zM162 1352q0 -41 76 -86v151q-21 0 -29 2q-47 0 -47 -67zM344 610q57 133 57 250q0 39 -6 76q-12 68 -51 113v-439z" />
<glyph unicode="%" horiz-adv-x="1077" d="M49 1288q0 55 10.5 105.5t37 87.5t68.5 59.5t107 22.5q103 -1 158 -58q35 -39 51.5 -95t16.5 -122q0 -92 -19.5 -179t-34.5 -142q-66 -195 -172 -195q-37 0 -75.5 32t-71.5 96.5t-54.5 161.5t-21.5 226zM156 8l561 1557h129l-559 -1557h-131zM180 1266q0 -84 13.5 -145.5 t29 -101.5t29.5 -59.5t18 -19.5q25 25 45 68q16 37 30.5 96t14.5 149q0 35 -6 67t-22 48q-18 18 -62 18q-57 0 -73.5 -33.5t-16.5 -86.5zM557 506q0 53 8 105.5t32 93t68 66.5t115 26q103 -1 156 -56q37 -41 52.5 -101t15.5 -126q0 -90 -18.5 -175t-33.5 -138 q-68 -195 -172 -195q-35 0 -74.5 31t-72.5 93.5t-54.5 156.5t-21.5 219zM688 498q0 -84 13.5 -145.5t30 -101.5t30.5 -58.5t16 -18.5q12 0 38 55.5t48 200.5q2 16 3 31.5t1 32.5q0 35 -6 63.5t-22 44.5q-18 18 -62 19q-59 0 -74.5 -35t-15.5 -88z" />
<glyph unicode="&#x26;" horiz-adv-x="907" d="M51 248q0 43 15.5 92t40 97t52 93t52.5 82q-4 10 -7 21.5t-7 21.5l-13 45q-18 66 -34.5 161t-16.5 179q0 55 9.5 104.5t27.5 86.5t47 57.5t70 20.5h96q23 0 42 1t38 1q43 0 67.5 -18.5t39 -48.5t18.5 -64.5t4 -65.5q0 -72 -17.5 -141.5t-46 -136t-63.5 -129t-70 -115.5 q12 -35 26.5 -72t29.5 -76q0 8 1 16.5t1 18.5q0 14 -1 29.5t-1 32.5q0 94 40.5 135t91 57.5t91.5 20.5t41 24q0 27 28 80l41 -22q-47 -66 -47 -160v-168h-45q0 8 -1 21.5t-5 25.5t-11 21.5t-20 9.5q-39 0 -39 -45q0 -8 1 -16.5t1 -16.5q0 -174 -55 -305q29 -41 45 -43 q4 -4 54 166l161 -41q-6 -23 -6 -43q0 -43 21.5 -90.5t21.5 -92.5h-47q0 8 -2 21.5t-5 27t-8 23.5t-12 10q-14 0 -32 -35q-57 -109 -148 -108q-35 0 -66.5 14.5t-70.5 55.5q-53 -37 -97 -55.5t-96 -18.5q-102 0 -163.5 68.5t-61.5 185.5zM213 219q0 -29 17.5 -46t50.5 -17 q49 0 96 55q-45 78 -92 207q-4 -4 -15.5 -26.5t-24 -51.5t-22.5 -61.5t-10 -59.5zM303 1049q0 -61 9.5 -129t19.5 -115q16 33 34.5 74t34 84t24.5 83.5t9 73.5q0 25 -15.5 43.5t-47.5 18.5q-58 -1 -64 -62q-2 -16 -3 -33.5t-1 -37.5z" />
<glyph unicode="'" horiz-adv-x="307" d="M70 1464q0 68 23.5 80t60.5 12q18 0 33.5 -2t26.5 -10t18.5 -27.5t7.5 -52.5q0 -31 -7.5 -73.5t-18.5 -81.5t-26.5 -67t-33.5 -28q-20 0 -36 27t-27 66t-16 82t-5 75z" />
<glyph unicode="(" horiz-adv-x="411" d="M43 782q10 252 54 461t141 391h163q-55 -86 -96 -188.5t-66.5 -211t-39 -221t-13.5 -222.5q0 -111 13.5 -224.5t40 -221t66.5 -208t95 -184.5h-163q-94 180 -139.5 392t-55.5 437z" />
<glyph unicode=")" horiz-adv-x="411" d="M4 -47q111 170 163 391t52 447q0 111 -12 223t-39 220.5t-67 211t-97 188.5h164q96 -182 140 -391t54 -461q-10 -225 -56 -437t-138 -392h-164z" />
<glyph unicode="*" horiz-adv-x="585" d="M43 1202q0 29 30.5 56.5t69.5 27.5q23 0 47 -20l48 26l-48 29q-25 -25 -51 -25q-41 0 -68.5 29t-27.5 53q0 39 28.5 69t55.5 30q35 0 65.5 -28t30.5 -56q0 -14 -2 -21l47 -29v58q-55 12 -55 80q0 86 86 86t86 -86q0 -68 -55 -80v-53l49 26q-4 12 -4 21q0 25 29.5 53.5 t66.5 28.5q27 0 55.5 -30t28.5 -71q0 -29 -29.5 -54.5t-64.5 -25.5q-29 0 -53 25l-50 -29l54 -30q20 20 49 20q35 0 64.5 -24.5t29.5 -53.5q0 -41 -29.5 -70.5t-54.5 -29.5q-37 0 -66.5 27.5t-29.5 56.5q0 6 1 11t3 11l-49 29v-61q55 -12 55 -82q0 -82 -86 -82t-86 82 q0 68 55 84v59l-51 -29q4 -16 4 -24q0 -29 -30.5 -55.5t-65.5 -26.5q-29 0 -55.5 30.5t-26.5 67.5z" />
<glyph unicode="+" horiz-adv-x="704" d="M66 379v170h198v203h174v-203h203v-170h-203v-203h-172v203h-200z" />
<glyph unicode="," horiz-adv-x="299" d="M45 -152q29 8 49.5 25.5t32.5 38t17.5 40t5.5 34.5q0 4 -1.5 6t-1.5 6q-84 0 -84 90q0 78 101 78q86 0 86 -86q0 -90 -40 -153t-81 -79q-23 -6 -41 -6q-23 0 -43 6z" />
<glyph unicode="-" horiz-adv-x="602" d="M37 393q29 51 88 78t124.5 46.5t124 40t85.5 63.5l116 -68q-37 -63 -101 -96t-131 -52.5t-121 -35t-70 -45.5zM37 596q20 37 54 60.5t76 39t86 26.5t85 24.5t72.5 31t48.5 47.5l116 -67q-37 -63 -101 -96t-131 -52.5t-121 -35t-70 -46.5z" />
<glyph unicode="." horiz-adv-x="256" d="M43 80q0 86 86 86q84 0 84 -86q0 -82 -84 -82q-86 0 -86 82z" />
<glyph unicode="/" horiz-adv-x="473" d="M-10 -78l340 1698h112l-340 -1698h-112z" />
<glyph unicode="0" d="M45 1233q0 59 5 118.5t22.5 106.5t50.5 76t90 29q51 -6 76 -7q10 0 34 3.5t83 3.5q145 -2 155 -183q4 -74 6 -141.5t2 -126.5q0 -119 -7 -246t-22.5 -249.5t-37 -233.5t-51 -195t-66.5 -133t-80 -49q-45 0 -81 50t-64.5 138.5t-50 207t-36 255t-21.5 283.5t-7 293z M205 1090q0 2 2 -37t6 -102.5t9 -146.5t11.5 -169t14.5 -170t16 -148.5t17.5 -104.5t19.5 -40q6 0 14.5 39t17.5 101.5t17 141t15.5 158.5t13.5 155t10 128q6 94 9 134t4 58.5t0 32t-1 56.5q0 39 -3 78.5t-10 72.5t-21 54.5t-39 25.5h-49q-31 -4 -46.5 -27.5t-21.5 -63.5 t-6 -97.5v-128.5z" />
<glyph unicode="1" d="M94 1057v100q47 0 87 50t69 116t45 132.5t16 96.5h215q-41 -53 -41 -100v-1350q0 -76 50 -106h-263q50 30 50 106v1082q-41 -55 -100.5 -91t-127.5 -36z" />
<glyph unicode="2" d="M23 1313q0 63 22.5 111.5t60 82t87 51t102.5 17.5q80 0 137 -34t94 -89t54.5 -123.5t17.5 -136.5q0 -137 -42 -288.5t-95 -291.5q-45 -117 -88 -228.5t-84 -223.5h155q31 0 53.5 43t41.5 88l36 -15q-33 -100 -32 -202q0 -18 1 -37t3 -37h-520q39 49 81 130t81.5 178.5 t77.5 206t70 214t57.5 198.5t39.5 163q8 37 12.5 76.5t4.5 86.5q0 61 -40 109.5t-104 48.5q-74 0 -102.5 -41t-28.5 -94q0 -59 33 -59t82 53l110 -121q-47 -53 -95 -75.5t-99 -22.5q-74 0 -129 66.5t-55 195.5z" />
<glyph unicode="3" d="M31 1274q31 94 30 205q0 18 -1 37.5t-3 39.5h475l31 -112l-172 -215q63 0 102 -14.5t59.5 -42t27 -69.5t6.5 -97q0 -72 -11.5 -174.5t-43 -229.5t-87 -278.5t-143.5 -323.5h-156q86 162 139.5 309.5t83 272.5t40 222t10.5 159q0 131 -70 131q-49 0 -105.5 -7.5 t-119.5 -15.5l207 322l-170 -4q-31 -2 -54.5 -44t-39.5 -85z" />
<glyph unicode="4" d="M31 188q51 100 87 202t57.5 207t30.5 218t9 234q0 250 -37 507l166 3q25 -213 25 -431q0 -205 -25 -400.5t-82 -373.5h49l60 170h73v-170h27q31 0 53.5 43t40.5 88l39 -14q-31 -117 -31 -256v-25h-129v-84q0 -76 50 -106h-263q51 33 52 106v82h-252z" />
<glyph unicode="5" d="M49 1556h483q-2 -23 -3 -42t-1 -39q0 -109 33 -201l-37 -14q-20 43 -42.5 84.5t-53.5 44.5l-170 4l-12 -162q313 -25 313 -326q0 -147 -69.5 -370.5t-190.5 -534.5h-176q119 311 194.5 533.5t75.5 353.5q0 92 -59.5 139t-175.5 43l-88 -2l4 90q6 68 9 134.5t11 135.5 q0 37 -15.5 74t-29.5 55z" />
<glyph unicode="6" d="M45 745q0 225 61 423t213 393h220q-33 -35 -96.5 -112t-123.5 -192q66 -6 113 -39.5t77 -91t44 -134.5t14 -167q0 -162 -19.5 -297t-39.5 -221q-35 -156 -88 -229.5t-119 -73.5q-59 0 -106.5 65.5t-81 170t-51 237.5t-17.5 268zM197 813q0 -78 6 -149.5t15 -133 t19.5 -109.5t18.5 -77q18 -80 29.5 -129t15.5 -49q2 0 11.5 29.5t22.5 93t29.5 163t32.5 240.5q4 35 6.5 68t2.5 61q0 49 -5.5 97.5t-17.5 86t-32.5 62.5t-49.5 25t-48.5 -26t-31.5 -65.5t-18 -89t-6 -98.5z" />
<glyph unicode="7" d="M66 1274q31 94 30 205q0 18 -1 36.5t-3 38.5h471q-12 -35 -12 -67q0 -39 16 -92q-139 -78 -194.5 -240t-55.5 -428q0 -152 15.5 -333t44.5 -396h-166q-20 164 -30.5 309.5t-10.5 276.5q0 545 178 807h-153q-31 0 -54.5 -44t-40.5 -90z" />
<glyph unicode="8" d="M29 829q0 219 110 355q-45 63 -45 123q0 35 13.5 69.5t13.5 73.5q0 53 -21 106h406q-23 -51 -23 -104q0 -39 14.5 -75t14.5 -72q0 -60 -43 -121q109 -127 109 -338q0 -164 -23 -304.5t-45 -238.5q-68 -303 -207 -303q-111 0 -176.5 188.5t-93.5 565.5q-2 20 -3 38.5 t-1 36.5zM199 809q0 -78 7 -149.5t16 -133t19.5 -108.5t16.5 -76q43 -176 45 -176t11.5 25.5t22.5 86t29.5 161t32.5 249.5q4 35 6.5 69t2.5 64q-1 146 -48 234q-25 35 -57 35q-27 0 -46 -26t-32.5 -66t-19.5 -90t-6 -99zM254 1327q0 -31 27 -57l4 -8q6 -7 14 -7h10 q16 0 28.5 28t12.5 44q0 23 -14 49.5t-35 26.5q0 -2 -2 -2q-2 -2 -4 -2t-4 -2l-10 -11q-27 -29 -27 -59z" />
<glyph unicode="9" d="M43 1276q0 59 11.5 112.5t41 93.5t81.5 63.5t132 23.5q266 0 266 -256q2 -47 2.5 -90t0.5 -82q0 -104 -4.5 -169t-11.5 -112t-16 -88t-18 -98q-33 -207 -102.5 -367t-161.5 -307h-194q55 76 99 161t83 177q-49 25 -88 101.5t-64 187.5q-6 18 -12 66t-12 110.5 t-12.5 134.5t-10.5 137.5t-7 118.5t-3 82zM203 1114q0 -96 10 -192.5t25.5 -173t34 -123.5t32.5 -47q20 0 38.5 42t32 106.5t22 142t8.5 151.5q0 129 -13 221t-31 127q-23 35 -53 35q-31 0 -51 -27.5t-32.5 -69.5t-17.5 -93.5t-5 -98.5z" />
<glyph unicode=":" horiz-adv-x="368" d="M90 80q0 86 86 86q84 0 84 -86q0 -82 -84 -82q-86 0 -86 82zM90 463q0 88 86 88q84 0 84 -88q0 -82 -84 -82q-86 0 -86 82z" />
<glyph unicode=";" horiz-adv-x="299" d="M55 -152q29 8 49.5 25.5t33 38t17.5 40t5 34.5q0 4 -1 6t-1 6q-84 0 -84 90q0 78 100 78q86 0 86 -86q0 -90 -40 -153t-81 -79q-23 -6 -41 -6q-23 0 -43 6zM55 463q0 88 86 88q84 0 84 -88q0 -82 -84 -82q-86 0 -86 82z" />
<glyph unicode="&#x3c;" horiz-adv-x="696" d="M57 549v178l576 324v-177l-426 -239l430 -260v-176l-576 348v6z" />
<glyph unicode="=" horiz-adv-x="673" d="M49 549v178h576v-178h-576zM53 199v176h576v-176h-576z" />
<glyph unicode="&#x3e;" horiz-adv-x="696" d="M57 199v176l430 260l-426 239v177l576 -324v-178l-4 4v-6z" />
<glyph unicode="?" horiz-adv-x="569" d="M39 1341q0 41 13.5 81t44 71t81.5 50.5t127 19.5q113 0 176.5 -60.5t63.5 -183.5q0 -61 -12.5 -127t-30 -127t-39 -115.5t-39.5 -97.5q-51 -115 -76.5 -221.5t-23.5 -214.5h-84q-2 86 -5.5 157.5t-3.5 133.5q0 115 58 247q14 33 29.5 74t28.5 85t22.5 89t9.5 86 q0 25 -1 45.5t-9.5 34.5t-25.5 22.5t-50 8.5q-106 -6 -107 -115q0 -63 33 -63q25 -1 64 32l30 -34q-33 -27 -57 -37l-16 -4q-33 -14 -69 -25.5t-77 -22.5q-23 49 -39 94.5t-16 116.5zM215 82q0 86 86 86q84 0 84 -86q0 -82 -84 -82q-86 0 -86 82z" />
<glyph unicode="@" horiz-adv-x="1003" d="M39 698q0 266 112.5 411.5t305.5 145.5q88 0 173 -39.5t151.5 -113.5t107.5 -181.5t41 -242.5q0 -78 -19.5 -150.5t-54.5 -130t-83 -92.5t-105 -35q-41 0 -68 14.5t-43 37.5q-53 -51 -119 -52q-39 0 -79 28t-72.5 77t-53 115.5t-20.5 144.5q0 74 17.5 140.5t48 117.5 t73.5 81t92 30q29 0 57.5 -9.5t55.5 -31.5q0 8 1 13t1 11h127q-45 53 -102.5 85t-120.5 32q-61 0 -112.5 -31t-88.5 -85t-57.5 -130t-20.5 -166q0 -131 31 -230.5t85 -166t126 -100t156 -33.5q100 0 166.5 53t97.5 131h59v-194q-53 -63 -131 -104.5t-182 -41.5 q-127 0 -229.5 54.5t-174 148.5t-110.5 220t-39 269zM375 599.5q0 -11.5 2 -21.5q8 -72 29.5 -113t44.5 -41q14 0 30.5 18.5t30.5 49t23.5 73.5t9.5 92q0 92 -28 143.5t-58 51.5q-33 0 -60 -68h2q-12 -33 -19 -76.5t-7 -84.5v-23.5zM688 438q20 10 38.5 38t32 63.5 t20.5 76.5t7 80v23.5t-2 23.5q-4 55 -23.5 108.5t-47.5 98.5l-19 -411q-2 -29 -4 -49.5t-2 -30.5v-6q0 -2 2 -2q0 -10 -2 -13z" />
<glyph unicode="A" horiz-adv-x="630" d="M33 0v365q0 86 9 206.5t27.5 255t44 268.5t58.5 246q12 45 29.5 82t17.5 62q0 29 -26 71h249q-28 -44 -28 -73q0 -25 18.5 -62t30.5 -80q33 -111 58.5 -245.5t44 -269t27.5 -255t9 -206.5v-365h-166v365q0 39 -2 84t-2 96q-23 -6 -55.5 -23.5t-66.5 -40t-63.5 -47 t-47.5 -49.5v-385h-166zM199 455q74 61 130 93t97 42q-2 16 -3 32.5t-1 36.5q-78 -33 -129 -69.5t-92 -77.5v-33.5t-2 -23.5zM207 580q61 53 111.5 80.5t97.5 46.5q-14 135 -40 274t-61 268q-23 -80 -39 -165t-30.5 -172t-23.5 -171.5t-15 -160.5z" />
<glyph unicode="B" horiz-adv-x="636" d="M10 0q53 20 53 117l-10 1321q0 82 -43 118h180h19q45 0 96 -4t94 -20t72 -51t29 -97v-20t-2 -21q-12 -111 -30 -191.5t-34 -143.5q29 -96 58.5 -189.5t53 -184.5t38 -182.5t14.5 -181.5q0 -115 -34 -181t-118 -89h-436zM219 1393l2 -492q31 68 60.5 176.5t52.5 286.5 q0 20 -29 24.5t-86 4.5zM225 453l2 -293q115 0 157 7t42 38q0 18 2 37.5t2 38.5q0 117 -28.5 232.5t-67.5 244.5q-14 -25 -32.5 -53.5t-36 -63.5t-29 -81t-11.5 -107z" />
<glyph unicode="C" horiz-adv-x="509" d="M37 1159q0 88 8 162t43 127t102.5 83t188.5 30h36.5t41.5 -2l-19 -216q-12 33 -31.5 43.5t-54.5 10.5q-49 0 -78.5 -9.5t-47 -29t-22.5 -53t-5 -82.5q4 -154 16 -316t43 -321.5t86 -309t145 -276.5h-194q-72 125 -121 269.5t-80 295t-44 302t-13 292.5z" />
<glyph unicode="D" horiz-adv-x="604" d="M14 0q47 31 47 106v1350q0 47 -41 100h236q315 0 315 -301q0 -82 -2 -137t-6 -108.5t-10 -118t-14 -164.5q-8 -115 -31 -242t-65 -235.5t-103 -179t-150 -70.5h-176zM225 170q33 23 56.5 79t40 131t27.5 161t19.5 169t13.5 155.5t11 119.5q4 29 10.5 93.5t6.5 152.5 q0 45 -3.5 74.5t-21.5 47t-55 25.5t-105 11v-1219z" />
<glyph unicode="E" horiz-adv-x="557" d="M14 0q47 31 47 106v1350q0 47 -41 100h480q-2 -16 -2 -33.5v-33.5q0 -119 32 -215l-38 -14q-16 43 -40 86t-55 43h-172v-170h119q47 0 70 65l35 -4l-56 -307l-39 6q0 76 -41 76h-88v-895h172q31 0 54.5 43t40.5 88l38 -15q-32 -95 -32 -206v-7v-31.5t2 -31.5h-486z" />
<glyph unicode="F" horiz-adv-x="565" d="M23 0q47 31 47 106v1350q0 47 -41 100h479q-2 -16 -2 -33.5v-33.5q0 -119 33 -215l-39 -14q-16 43 -40 86t-54 43h-173v-170h119q47 0 70 65l35 -4l-56 -307l-39 6q0 76 -40 76h-89v-949q0 -76 50 -106h-260z" />
<glyph unicode="G" horiz-adv-x="616" d="M23 1245q0 311 313 311h127q35 0 63.5 -1t48.5 -3l-20 -217q-23 53 -92 54h-92q-70 0 -108 -9.5t-55.5 -29t-20.5 -50t-3 -73.5q0 -88 6.5 -150.5t10.5 -91.5q4 -49 8 -120.5t12 -154.5t19.5 -168t29 -160t42 -131t59.5 -81q0 150 -1 296t-1 294v147.5t2 147.5 q-39 0 -39 -27v-8q0 -16 -8 -33h-35l20 283h45q-2 -6 -2 -15q0 -25 16.5 -31.5t41.5 -6.5q10 0 21 1t24 1l133 2q-53 -47 -53 -140v-975q0 -75 47 -106h-176q-86 0 -146.5 61.5t-100.5 157.5t-63.5 212t-36 224.5t-16.5 194.5t-6 123q-4 55 -9 122.5t-5 149.5z" />
<glyph unicode="H" horiz-adv-x="679" d="M25 0q47 31 47 106v1350q0 47 -41 100h245q-41 -53 -40 -100v-172q49 14 106 14q55 0 104 -14v172q0 45 -43 100h248q-43 -55 -43 -100v-1350q0 -72 47 -106h-258q49 33 49 106v1024q-53 20 -108 21q-53 0 -102 -18v-1027q0 -76 49 -106h-260zM236 1182q49 14 104 14 q27 0 52.5 -3t53.5 -13v55q-53 18 -104 18q-55 0 -106 -18v-53z" />
<glyph unicode="I" horiz-adv-x="331" d="M35 0q47 30 47 106v1350q0 47 -41 100h246q-41 -53 -41 -100v-1350q0 -76 49 -106h-260z" />
<glyph unicode="J" horiz-adv-x="532" d="M0 1274q31 94 31 205q0 18 -1 37.5t-3 39.5h481q-43 -55 -43 -100q0 -59 1 -116.5t1 -114.5q0 -152 -12.5 -312.5t-43 -320.5t-80.5 -311.5t-124 -280.5h-195q76 109 127 239t84 270t50.5 281.5t25.5 270.5q2 82 3 164t1 168l-174 -4q-31 -2 -54.5 -44t-39.5 -85z" />
<glyph unicode="K" horiz-adv-x="632" d="M23 0q47 31 47 106v1350q0 47 -41 100h245q-41 -53 -41 -100v-780q10 35 20.5 93t20 125t17.5 132.5t12 114.5q0 98 11.5 176t31.5 137q35 102 225 102q-2 -16 -2 -33.5v-33.5q0 -100 27 -199l-47 -6q0 8 -3 22.5t-7 29t-9.5 25.5t-11.5 11q-16 0 -32.5 -51t-16.5 -133 q0 -74 -5 -128t-15 -102q45 -102 68.5 -204.5t33.5 -203.5t12 -204.5t2 -210.5q-2 -10 -2 -33q0 -39 7.5 -65.5t35.5 -36.5h-172q-18 0 -25.5 29.5t-10.5 69.5q-2 30 -2 62v21q1 43 1 68q0 106 -4 208.5t-22 207.5q-16 -37 -27.5 -68t-24.5 -61q-31 -76 -58.5 -141.5 t-27.5 -119.5v-170q0 -76 50 -106h-260z" />
<glyph unicode="L" horiz-adv-x="567" d="M25 0q47 31 47 106v1350q0 47 -41 100h245q-41 -53 -40 -100v-1296h172q31 0 54 43t40 88l39 -15q-33 -98 -33 -213v-31.5t2 -31.5h-485z" />
<glyph unicode="M" horiz-adv-x="907" d="M33 0q47 31 47 106v1350q0 47 -41 100h129q63 0 111.5 -41.5t82 -101t55 -122t32.5 -103.5q18 74 45.5 140.5t62.5 117.5t78 80.5t94 29.5h129q-41 -53 -41 -100v-1350q0 -76 49 -106h-260q47 31 47 106v1186q-35 -100 -58.5 -199.5t-37.5 -190.5t-20.5 -171t-6.5 -141 h-163q0 51 -8.5 137t-24 184.5t-39 198.5t-51.5 180v-1184q0 -76 49 -106h-260z" />
<glyph unicode="N" horiz-adv-x="749" d="M41 0q47 31 47 106v1350q0 47 -41 100h39q72 0 129 -7t106.5 -33.5t93.5 -79t91 -140.5v160q0 45 -43 100h246q-41 -59 -41 -100v-1350q0 -76 49 -106h-262q51 33 51 106v402q0 113 -15.5 243t-47 250.5t-80 218t-111.5 146.5v-1260q0 -76 49 -106h-260z" />
<glyph unicode="O" horiz-adv-x="747" d="M33 1133q0 86 16.5 163.5t56 136t105 92.5t166.5 34q159 -1 241 -89q57 -59 80 -151t23 -197q0 -68 -8 -137.5t-20.5 -131.5t-27 -117.5t-26.5 -94.5q-98 -301 -262 -301q-168 0 -262 301q-14 43 -28.5 99.5t-27 120t-19.5 132t-7 140.5zM195 1149q0 -63 9 -134 t21.5 -134.5t25.5 -113.5t21 -75q61 -188 105 -188q10 0 31.5 24.5t46 84t50 157.5t44.5 246q4 33 5 64.5t1 64.5q0 78 -12 128t-43 83q-35 37 -123 37q-55 0 -91 -17.5t-56.5 -49.5t-27.5 -77t-7 -100zM262 113q0 112 113 112h2q117 0 117 -112q0 -113 -117 -113 q-115 0 -115 113z" />
<glyph unicode="P" horiz-adv-x="528" d="M25 1556h180h18q43 0 93.5 -4t94.5 -20t72.5 -51t28.5 -97q0 -104 -19.5 -232t-41.5 -267q-41 -257 -154 -398q-20 -31 -38.5 -88t-18.5 -131v-162q0 -76 47 -106h-260q49 31 49 106l-8 1332q-6 86 -43 118zM231 1393l5 -674q18 25 37.5 93.5t36 160.5t26.5 195.5 t10 197.5q0 16 -28.5 21.5t-86.5 5.5z" />
<glyph unicode="Q" horiz-adv-x="735" d="M31 1128q0 88 16 167t56 137.5t105.5 92.5t164.5 34q155 -1 243 -89q57 -61 79 -157t22 -205q0 -66 -8.5 -133.5t-20.5 -129t-26.5 -113.5t-26.5 -91q-72 -213 -180 -276v-259q0 -74 51 -106h-260q47 31 47 106v256q-59 33 -102.5 101.5t-77.5 177.5q-29 84 -55.5 215 t-26.5 272zM193 1137q0 -111 15 -204t34.5 -163t28 -90.5t22.5 -50.5v415q0 43 -41 103h246q-43 -55 -43 -103v-415q6 16 22.5 58t32.5 106.5t29.5 151.5t13.5 198q0 57 -7 103t-26.5 79t-54.5 50.5t-92 17.5t-93 -18.5t-55.5 -52.5t-25.5 -81t-6 -104z" />
<glyph unicode="R" horiz-adv-x="632" d="M25 1556h180h18q43 0 93.5 -4t94.5 -20t72.5 -51t28.5 -97q0 -94 -15.5 -214.5t-35.5 -237.5q37 -92 57.5 -182.5t29.5 -180.5t11 -181t2 -183v-70v-31.5t4 -41t12.5 -39t26.5 -23.5h-170q-18 0 -25.5 25.5t-10.5 59.5q-2 26 -2 51v18q1 34 1 53q0 104 -3 208.5 t-19 209.5q-16 -41 -35.5 -75t-42.5 -63q-20 -31 -38.5 -88t-18.5 -131v-162q0 -76 47 -106h-260q49 31 49 106l-8 1332q-6 86 -43 118zM231 1393l5 -674q18 25 37.5 93.5t36 160.5t26.5 195.5t10 197.5q0 16 -28.5 21.5t-86.5 5.5z" />
<glyph unicode="S" horiz-adv-x="528" d="M25 1419q0 137 108 137h340q-2 -29 -2 -52v-48q0 -35 3 -68.5t13 -70.5l13 -66l-47 -10q-10 55 -16.5 88t-22 50.5t-48 21.5t-98.5 4q-45 0 -45 -70q0 -33 21.5 -57.5t62.5 -46.5q104 -59 142 -157.5t38 -235.5q0 -106 -26.5 -225t-66.5 -233t-85 -213t-84 -167h-194 q41 55 91 153.5t94 216t73.5 241.5t29.5 229q0 106 -29.5 180t-107.5 117q-76 41 -116.5 110.5t-40.5 171.5z" />
<glyph unicode="T" horiz-adv-x="651" d="M25 1274q30 91 30 198v7q0 18 -1 37.5t-3 39.5h543q-2 -20 -3 -38.5t-1 -36.5q0 -115 33 -207l-39 -14q-16 43 -40 86t-55 43h-83v-1283q0 -76 49 -106h-262q49 31 49 106v1283h-88q-31 0 -54.5 -43t-40.5 -86z" />
<glyph unicode="U" horiz-adv-x="636" d="M23 434q0 104 13 232.5t32.5 263.5t41 268t35.5 248q0 8 -5 26.5t-13 37t-19.5 31.5t-23.5 15h235q-8 -147 -29.5 -298.5t-45 -296t-41 -275.5t-17.5 -237q0 -51 6.5 -102.5t22.5 -93.5t48 -67.5t81 -25.5q18 2 68 28v1268q0 47 -45 100h249q-45 -53 -45 -100v-1350 q0 -74 50 -106h-72q-23 0 -39 6t-33 29q-41 -23 -78 -30t-73 -7q-68 0 -123.5 32.5t-95 90t-62 137.5t-22.5 176z" />
<glyph unicode="V" horiz-adv-x="628" d="M31 1188v368h166v-368q0 -74 4 -169t16 -209t35.5 -242t60.5 -265q39 141 62.5 283.5t37 263.5t17.5 211t4 127v368h166v-368q0 -94 -11 -240.5t-34 -303.5t-56.5 -303t-78.5 -243q-8 -20 -8 -32q0 -28 28 -66h-250q27 39 27 66q0 23 -17.5 61.5t-29.5 81.5 q-33 111 -58.5 245t-44 268t-27.5 257t-9 209z" />
<glyph unicode="W" horiz-adv-x="870" d="M23 1556h260q-49 -41 -50 -112v-1186q25 63 47.5 162.5t40 203t26.5 195.5t9 139h168v-53q2 -61 11.5 -142t23.5 -167t34.5 -173t49.5 -163v1184q0 72 -47 112h260q-49 -41 -49 -112v-1348q0 -55 41 -96h-127q-68 0 -116 42t-82 100.5t-54 120t-31 102.5 q-18 -74 -44.5 -140.5t-61.5 -116t-78 -79t-94 -29.5h-131q41 41 41 96v1348q0 72 -47 112z" />
<glyph unicode="X" horiz-adv-x="667" d="M27 1556h614q-68 -92 -121 -173.5t-94 -163.5q86 -190 121 -390t35 -405v-320q0 -27 12 -63.5t41 -40.5h-266q18 4 33.5 41t15.5 63v320q-6 336 -84 582q-84 -244 -86 -582l-2 -320q0 -27 13 -63.5t34 -40.5h-260q27 4 38 41t11 63l2 320q2 205 34 404.5t124 390.5 q-47 82 -100.5 163.5t-114.5 173.5zM289 1483q0 -31 17.5 -52.5t27.5 -37.5q4 8 22.5 34.5t18.5 55.5q0 23 -9 42t-32 27q-25 -8 -35 -27.5t-10 -41.5z" />
<glyph unicode="Y" horiz-adv-x="528" d="M33 1229q0 162 6 327h168q-4 -84 -8 -164.5t-4 -160.5q0 -137 14 -259t59 -233q39 100 53.5 210t14.5 239q0 92 -2 183t-4 185h166q2 -90 4 -177t2 -173q0 -164 -21.5 -318.5t-103.5 -291.5q-12 -23 -21.5 -40t-9.5 -40v-397q0 -82 49 -119h-258q49 37 49 119v397 q0 27 -9 42t-19 38q-43 70 -69 143.5t-38 152.5t-15 162t-3 175z" />
<glyph unicode="Z" horiz-adv-x="557" d="M25 0q41 41 41 96q0 53 -1.5 108.5t-1.5 110.5q0 129 9.5 266.5t30 274.5t55.5 273.5t88 263.5l-92 -4q-31 -2 -54.5 -43t-40.5 -86l-34 14q30 91 30 198v7q0 18 -1 37.5t-3 39.5h481q-86 -98 -141 -231t-88 -277.5t-48.5 -288.5t-21.5 -267q-2 -43 -3 -85t-1 -83v-164 h170q31 0 54.5 44t44.5 89l34 -17q-32 -95 -32 -206v-7v-31.5t2 -31.5h-477z" />
<glyph unicode="[" horiz-adv-x="344" d="M47 -111v1807h266v-74h-102v-1661h102v-72h-266z" />
<glyph unicode="\" horiz-adv-x="473" d="M-10 1620h112l340 -1698h-112z" />
<glyph unicode="]" horiz-adv-x="356" d="M29 -39h102v1661h-102v74h266v-1807h-266v72z" />
<glyph unicode="^" horiz-adv-x="911" d="M27 340l325 575h176l353 -581h-179l-258 430l-239 -424h-178z" />
<glyph unicode="_" horiz-adv-x="784" d="M0 -133h791v-178h-791v178z" />
<glyph unicode="`" horiz-adv-x="2131" d="M-96 1884h256l110 -229h-147z" />
<glyph unicode="a" horiz-adv-x="628" d="M31 0v365q0 86 9 206.5t27.5 255t44 268.5t58.5 246q12 43 29.5 80t17.5 60q0 35 -27 75h250q-26 -38 -26 -71q0 -25 16 -62t31 -82q33 -111 58.5 -245.5t44 -269t27.5 -255t9 -206.5v-365h-166v385q-18 25 -48 49.5t-63.5 47t-66.5 40t-55 23.5q0 -51 -2 -96.5t-2 -83.5 v-365h-166zM207 590q41 -10 97 -42t130 -93q-2 10 -2 23.5v33.5q-43 41 -93 77.5t-128 69.5q0 -20 -1 -36.5t-3 -32.5zM217 707q45 -18 96.5 -46t112.5 -81q-6 76 -15.5 160.5t-23.5 171.5t-31.5 172t-38.5 165q-35 -129 -60.5 -268t-39.5 -274z" />
<glyph unicode="b" horiz-adv-x="649" d="M23 0q53 20 53 117l-10 1321q0 82 -43 118h180h18q45 0 96.5 -4t94.5 -20t71.5 -51t28.5 -97v-20t-2 -21q-12 -111 -30 -191.5t-34 -143.5q29 -96 59 -189.5t53.5 -184.5t37.5 -182.5t14 -181.5q0 -115 -33.5 -181t-117.5 -89h-436zM231 1393l2 -492q31 68 61 176.5 t52 286.5q0 20 -28.5 24.5t-86.5 4.5zM238 453l2 -293q115 0 156.5 7t41.5 38q0 18 2 37.5t2 38.5q0 117 -28.5 232.5t-67.5 244.5q-14 -25 -32.5 -53.5t-36 -63.5t-28.5 -81t-11 -107z" />
<glyph unicode="c" horiz-adv-x="493" d="M20 1159q0 88 8.5 162t43 127t102.5 83t188 30h37t41 -2l-18 -216q-12 33 -31.5 43.5t-54.5 10.5q-49 0 -79 -9.5t-47 -29t-22.5 -53t-5.5 -82.5q4 -154 16.5 -316t43 -321.5t86 -309t145.5 -276.5h-194q-72 125 -121 269.5t-80 295t-44.5 302t-13.5 292.5z" />
<glyph unicode="d" horiz-adv-x="608" d="M18 0q47 31 48 106v1350q0 47 -41 100h235q315 0 315 -301q0 -82 -2 -137t-6 -108.5t-10 -118t-14 -164.5q-8 -115 -31 -242t-64.5 -235.5t-103 -179t-149.5 -70.5h-177zM229 170q33 23 56.5 79t40 131t28 161t19.5 169t13 155.5t11 119.5q4 29 10.5 93.5t6.5 152.5 q0 45 -3 74.5t-21.5 47t-55.5 25.5t-105 11v-1219z" />
<glyph unicode="e" horiz-adv-x="567" d="M25 0q47 31 47 106v1350q0 47 -41 100h479q-2 -16 -2 -33.5v-33.5q0 -119 33 -215l-39 -14q-16 43 -40 86t-54 43h-172v-170h118q47 0 70 65l35 -4l-56 -307l-38 6q0 76 -41 76h-88v-895h172q31 0 54 43t40 88l39 -15q-33 -98 -33 -213v-31.5t2 -31.5h-485z" />
<glyph unicode="f" horiz-adv-x="550" d="M23 0q47 31 47 106v1350q0 47 -41 100h479q-2 -16 -2 -33.5v-33.5q0 -119 33 -215l-39 -14q-16 43 -40 86t-54 43h-173v-170h119q47 0 70 65l35 -4l-56 -307l-39 6q0 76 -40 76h-89v-949q0 -76 50 -106h-260z" />
<glyph unicode="g" horiz-adv-x="618" d="M25 1245q0 311 313 311h127q35 0 63.5 -1t49.5 -3l-21 -217q-23 53 -92 54h-92q-70 0 -108 -9.5t-55 -29t-20.5 -50t-3.5 -73.5q0 -88 6.5 -150.5t10.5 -91.5q4 -49 8 -120.5t12 -154.5t19.5 -168t29 -160t43 -131t58.5 -81q0 150 -1 296t-1 294v147.5t2 147.5 q-39 0 -39 -27v-8q0 -16 -8 -33h-35l20 283h45q-2 -6 -2 -15q0 -25 16.5 -31.5t41.5 -6.5q10 0 21 1t24 1l133 2q-53 -47 -53 -140v-975q0 -75 47 -106h-176q-86 0 -146.5 61.5t-100.5 157.5t-63.5 212t-36 224.5t-16.5 194.5t-6 123q-4 55 -9 122.5t-5 149.5z" />
<glyph unicode="h" horiz-adv-x="667" d="M16 0q47 31 47 106v1350q0 47 -40 100h245q-41 -53 -41 -100v-172q49 14 107 14q55 0 104 -14v172q0 45 -43 100h248q-43 -55 -43 -100v-1350q0 -72 47 -106h-258q49 33 49 106v1024q-53 20 -108 21q-53 0 -103 -18v-1027q0 -76 49 -106h-260zM227 1182q49 14 105 14 q27 0 52.5 -3t53.5 -13v55q-53 18 -104 18q-55 0 -107 -18v-53z" />
<glyph unicode="i" horiz-adv-x="321" d="M27 0q47 30 47 106v1350q0 47 -41 100h246q-41 -53 -41 -100v-1350q0 -76 49 -106h-260z" />
<glyph unicode="j" horiz-adv-x="555" d="M23 1274q30 91 30 198v7q0 18 -1 37.5t-3 39.5h481q-43 -55 -43 -100q0 -59 1 -116.5t1 -114.5q0 -152 -12 -312.5t-43 -320.5t-81 -311.5t-124 -280.5h-194q76 109 127 239t84 270t50.5 281.5t25.5 270.5q2 82 3 164t1 168l-174 -4q-31 -2 -54.5 -44t-40.5 -85z" />
<glyph unicode="k" horiz-adv-x="624" d="M14 0q47 31 47 106v1350q0 47 -41 100h246q-41 -53 -41 -100v-780q10 35 20.5 93t19.5 125t17.5 132.5t12.5 114.5q0 98 11 176t32 137q35 102 225 102q-2 -16 -2 -33.5v-33.5q0 -100 27 -199l-47 -6q0 8 -3 22.5t-7.5 29t-9.5 25.5t-11 11q-16 0 -32.5 -51t-16.5 -133 q0 -74 -5 -128t-16 -102q45 -102 68.5 -204.5t34 -203.5t12.5 -204.5t2 -210.5q-2 -10 -2 -33q0 -39 7 -65.5t36 -36.5h-172q-18 0 -25.5 29.5t-10.5 69.5q-2 30 -2 62v21q1 43 1 68q0 106 -4 208.5t-23 207.5q-16 -37 -27 -68t-24 -61q-31 -76 -58.5 -141.5t-27.5 -119.5 v-170q0 -76 49 -106h-260z" />
<glyph unicode="l" horiz-adv-x="561" d="M18 0q47 31 48 106v1350q0 47 -41 100h245q-41 -53 -41 -100v-1296h172q31 0 54.5 43t40.5 88l39 -15q-33 -98 -33 -213v-31.5t2 -31.5h-486z" />
<glyph unicode="m" horiz-adv-x="886" d="M25 0q47 31 47 106v1350q0 47 -41 100h129q63 0 111 -41.5t82 -101t55.5 -122t31.5 -103.5q18 74 46 140.5t63 117.5t78 80.5t94 29.5h129q-41 -53 -41 -100v-1350q0 -76 49 -106h-260q47 31 47 106v1186q-35 -100 -58.5 -199.5t-37.5 -190.5t-20.5 -171t-6.5 -141h-164 q0 51 -8 137t-23.5 184.5t-39 198.5t-51.5 180v-1184q0 -76 49 -106h-260z" />
<glyph unicode="n" horiz-adv-x="727" d="M25 0q47 31 47 106v1350q0 47 -41 100h39q72 0 129 -7t106 -33.5t93 -79t91 -140.5v160q0 45 -43 100h246q-41 -59 -41 -100v-1350q0 -76 49 -106h-262q51 33 51 106v402q0 113 -15 243t-47 250.5t-80 218t-111 146.5v-1260q0 -76 49 -106h-260z" />
<glyph unicode="o" horiz-adv-x="739" d="M25 1133q0 86 16 163.5t56 136t105.5 92.5t166.5 34q159 -1 241 -89q57 -59 80 -151t23 -197q0 -68 -8.5 -137.5t-20.5 -131.5t-26.5 -117.5t-26.5 -94.5q-98 -301 -262 -301q-168 0 -263 301q-14 43 -28.5 99.5t-26.5 120t-19 132t-7 140.5zM186 1149q0 -63 9.5 -134 t21.5 -134.5t25.5 -113.5t21.5 -75q61 -188 105 -188q10 0 31.5 24.5t46 84t50 157.5t44.5 246q4 33 5 64.5t1 64.5q0 78 -12 128t-43 83q-35 37 -123 37q-55 0 -91 -17.5t-56.5 -49.5t-28 -77t-7.5 -100zM254 113q0 112 113 112h2q117 0 116 -112q1 -113 -116 -113 q-115 0 -115 113z" />
<glyph unicode="p" horiz-adv-x="540" d="M31 1556h180h18q43 0 93.5 -4t94.5 -20t72.5 -51t28.5 -97q0 -104 -19.5 -232t-41.5 -267q-41 -257 -154 -398q-20 -31 -38.5 -88t-18.5 -131v-162q0 -76 47 -106h-260q49 31 49 106l-8 1332q-6 86 -43 118zM238 1393l4 -674q18 25 37.5 93.5t36 160.5t26.5 195.5 t10 197.5q0 16 -28.5 21.5t-85.5 5.5z" />
<glyph unicode="q" horiz-adv-x="733" d="M23 1128q0 88 16 167t56 137.5t105.5 92.5t164.5 34q155 -1 243 -89q57 -61 79 -157t22 -205q0 -66 -8.5 -133.5t-20.5 -129t-26.5 -113.5t-26.5 -91q-72 -213 -181 -276v-259q0 -74 52 -106h-260q47 31 47 106v256q-59 33 -102.5 101.5t-78.5 177.5q-29 84 -55 215 t-26 272zM184 1137q0 -111 15.5 -204t35 -163t29.5 -95.5t21 -45.5v415q0 43 -41 103h245q-43 -55 -43 -103v-415q6 16 22.5 58t33 106.5t30 151.5t13.5 198q0 57 -7.5 103t-26.5 79t-54 50.5t-92 17.5t-93 -18.5t-55.5 -52.5t-26 -81t-6.5 -104z" />
<glyph unicode="r" horiz-adv-x="610" d="M23 1556h180h18q43 0 93.5 -4t94.5 -20t72.5 -51t28.5 -97q0 -94 -15.5 -214.5t-35.5 -237.5q37 -92 57.5 -182.5t29.5 -180.5t11 -181t2 -183v-70v-31.5t4 -41t12.5 -39t26.5 -23.5h-170q-18 0 -25.5 25.5t-10.5 59.5q-2 26 -2 51v18q1 34 1 53q0 104 -3 208.5 t-19 209.5q-16 -41 -35.5 -75t-42.5 -63q-20 -31 -38.5 -88t-18.5 -131v-162q0 -76 47 -106h-260q49 31 49 106l-8 1332q-6 86 -43 118zM229 1393l4 -674q18 25 38 93.5t36.5 160.5t26.5 195.5t10 197.5q0 16 -28.5 21.5t-86.5 5.5z" />
<glyph unicode="s" horiz-adv-x="528" d="M25 1419q0 137 108 137h340q-2 -29 -2 -52v-48q0 -35 3 -68.5t13 -70.5l13 -66l-47 -10q-10 55 -16.5 88t-22 50.5t-48 21.5t-98.5 4q-45 0 -45 -70q0 -33 21.5 -57.5t62.5 -46.5q104 -59 142 -157.5t38 -235.5q0 -106 -26.5 -225t-66.5 -233t-85 -213t-84 -167h-194 q41 55 91 153.5t94 216t73.5 241.5t29.5 229q0 106 -29.5 180t-107.5 117q-76 41 -116.5 110.5t-40.5 171.5z" />
<glyph unicode="t" horiz-adv-x="641" d="M25 1274q30 91 30 198v7q0 18 -1 37.5t-3 39.5h543q-2 -20 -3 -38.5t-1 -36.5q0 -115 33 -207l-39 -14q-16 43 -40 86t-55 43h-83v-1283q0 -76 49 -106h-262q49 31 49 106v1283h-88q-31 0 -54.5 -43t-40.5 -86z" />
<glyph unicode="u" horiz-adv-x="641" d="M25 434q0 104 13 232.5t32.5 263.5t41 268t35.5 248q0 8 -5 26.5t-13 37t-19.5 31.5t-23.5 15h236q-8 -147 -30 -298.5t-45.5 -296t-41 -275.5t-17.5 -237q0 -51 6.5 -102.5t22.5 -93.5t48 -67.5t81 -25.5q18 2 68 28v1268q0 47 -45 100h249q-45 -53 -45 -100v-1350 q0 -74 50 -106h-72q-23 0 -39 6t-33 29q-41 -23 -77.5 -30t-73.5 -7q-68 0 -123 32.5t-95 90t-62.5 137.5t-22.5 176z" />
<glyph unicode="v" horiz-adv-x="624" d="M27 1188v368h166v-368q0 -74 4 -169t16 -209t35.5 -242t60.5 -265q39 141 62.5 283.5t37 263.5t17.5 211t4 127v368h166v-368q0 -94 -11.5 -240.5t-34 -303.5t-56 -303t-78.5 -243q-8 -20 -8 -32q0 -28 28 -66h-250q27 39 27 66q0 23 -17.5 61.5t-29.5 81.5 q-33 111 -58.5 245t-44 268t-27.5 257t-9 209z" />
<glyph unicode="w" horiz-adv-x="866" d="M18 1556h261q-49 -41 -50 -112v-1186q25 63 47.5 162.5t40 203t26.5 195.5t9 139h168v-53q2 -61 11.5 -142t23.5 -167t34.5 -173t49.5 -163v1184q0 72 -47 112h260q-49 -41 -49 -112v-1348q0 -55 41 -96h-127q-68 0 -116 42t-82 100.5t-54.5 120t-30.5 102.5 q-18 -74 -45 -140.5t-61.5 -116t-77.5 -79t-94 -29.5h-131q41 41 41 96v1348q0 72 -48 112z" />
<glyph unicode="x" horiz-adv-x="657" d="M18 1556h615q-68 -92 -121 -173.5t-94 -163.5q86 -190 120.5 -390t34.5 -405v-320q0 -27 12.5 -63.5t41.5 -40.5h-267q18 4 34 41t16 63v320q-6 336 -84 582q-84 -244 -86 -582l-2 -320q0 -27 13 -63.5t34 -40.5h-260q27 4 38 41t11 63l2 320q2 205 33.5 404.5 t123.5 390.5q-47 82 -100 163.5t-115 173.5zM281 1483q0 -31 17 -52.5t28 -37.5q4 8 22.5 34.5t18.5 55.5q0 23 -9 42t-32 27q-25 -8 -35 -27.5t-10 -41.5z" />
<glyph unicode="y" horiz-adv-x="522" d="M27 1229q0 162 6 327h168q-4 -84 -8.5 -164.5t-4.5 -160.5q0 -137 14.5 -259t59.5 -233q39 100 53.5 210t14.5 239q0 92 -2 183t-4 185h165q2 -90 4.5 -177t2.5 -173q0 -164 -21.5 -318.5t-103.5 -291.5q-12 -23 -21.5 -40t-9.5 -40v-397q0 -82 49 -119h-258 q49 37 49 119v397q0 27 -9 42t-19 38q-43 70 -69 143.5t-38 152.5t-15 162t-3 175z" />
<glyph unicode="z" horiz-adv-x="563" d="M31 0q41 41 41 96q0 53 -1 108.5t-1 110.5q0 129 9 266.5t29.5 274.5t55.5 273.5t88 263.5l-92 -4q-31 -2 -54.5 -43t-39.5 -86l-35 14q30 91 30 198v7q0 18 -1 37.5t-3 39.5h482q-86 -98 -141.5 -231t-88.5 -277.5t-48 -288.5t-21 -267q-2 -43 -3 -85t-1 -83v-164h170 q31 0 54 44t44 89l35 -17q-33 -98 -33 -213v-31.5t2 -31.5h-477z" />
<glyph unicode="{" horiz-adv-x="303" d="M37 692v172l51 2q0 4 -3 45t-8 98.5t-11.5 123t-11.5 123t-8 87t-3 52.5q0 31 11.5 59.5t37 50t67.5 33.5t105 12v-166q-29 0 -40 -11t-11 -40q6 -59 11 -114.5t9.5 -111.5t9.5 -116.5t11 -134.5q0 -45 -18 -78q18 -35 18 -78q0 -4 -3 -43t-8 -100t-12.5 -139t-15.5 -158 q-2 -10 -2 -24q0 -63 37 -64q6 0 10 2l4 -168q-127 0 -174 46t-47 116q0 6 3 45t8 95.5t11.5 121t11.5 120.5t8 95t3 45z" />
<glyph unicode="|" horiz-adv-x="280" d="M63 -111v1807h164v-1807h-164z" />
<glyph unicode="}" horiz-adv-x="303" d="M37 6l4 168q4 -2 10 -2q37 0 37 64q0 14 -2 24q-8 80 -15.5 158t-12.5 139t-8 100t-3 43q0 43 19 78q-18 33 -19 78q6 74 11 134.5t9.5 116.5t9.5 111.5t11 114.5q0 29 -11 40t-40 11v166q63 0 105 -12t68 -33.5t37 -50.5t11 -59q0 -23 -3 -52.5t-8 -87t-11.5 -123 t-11.5 -123t-8 -98.5t-3 -45l51 -2v-172l-51 -2q0 -6 3 -45t8 -95t11.5 -120.5t11.5 -121t8 -95.5t3 -45q0 -70 -47 -116t-174 -46z" />
<glyph unicode="~" horiz-adv-x="630" d="M57 768q0 123 44 171t114 48q12 0 39 -8t57.5 -17.5t59 -16.5t41.5 -7h6q-2 2 -2 51l164 4q0 -129 -44 -175t-114 -46q-31 0 -63.5 7t-60.5 16.5t-50.5 17.5t-30.5 8q4 0 4 -51z" />
<glyph unicode="&#xa1;" horiz-adv-x="253" d="M37 1481q0 88 88 88q82 0 82 -88q0 -84 -82 -84q-88 0 -88 84zM39 6v289q0 215 6 426t35 426h86q37 -287 37 -567v-574h-164z" />
<glyph unicode="&#xa2;" horiz-adv-x="634" d="M43 913q0 78 18.5 130.5t49 86t73.5 50t92 20.5v129h121v-133q41 -8 75 -25.5t59.5 -48t41 -78t17.5 -112.5l-125 10q-4 59 -21.5 76.5t-46.5 19.5v-446q14 29 25.5 67.5t21.5 81.5l107 -86q-27 -86 -66 -155.5t-88 -104.5v-145h-121v127q-49 20 -92 76.5t-73.5 133.5 t-49 163t-18.5 163zM190 918q0 -35 7.5 -77t18.5 -85t26.5 -82t33.5 -68v432q-35 -4 -60.5 -27t-25.5 -93z" />
<glyph unicode="&#xa3;" horiz-adv-x="571" d="M31 430v135h55q10 125 27.5 256t47 258t74 248t105.5 229h195q-72 -102 -121 -222t-82 -249t-51.5 -261t-30.5 -259h100v-135h-104v-51.5t-2 -48.5v-166l174 2q31 0 54.5 43t39.5 88l35 -16q-31 -96 -31 -203q0 -20 1 -39t3 -39h-481q43 51 43 98q2 51 0 101.5t-2 101.5 v129h-49z" />
<glyph unicode="&#xa4;" horiz-adv-x="813" d="M23 571l116 119q-59 88 -59 193q0 106 63 190l-120 121l65 70l121 -119q92 70 203 69q100 0 188 -59l107 111l69 -68l-104 -106q37 -47 55 -101.5t18 -109.5q0 -53 -17 -105.5t-52 -97.5l102 -103l-65 -69l-105 104q-88 -63 -194 -63q-55 0 -108.5 18.5t-100.5 55.5 l-113 -117zM174 881q0 -49 18.5 -92.5t51 -76t75.5 -51t93 -18.5q49 0 92 18.5t75.5 51t51 75.5t18.5 93q0 49 -18.5 92t-51 75.5t-75.5 51t-92 18.5t-92.5 -18.5t-76 -51t-51 -75.5t-18.5 -92z" />
<glyph unicode="&#xa5;" horiz-adv-x="520" d="M25 1229q0 162 6 327h168q-4 -84 -8.5 -164.5t-4.5 -160.5q0 -137 14.5 -259t59.5 -233q39 100 53.5 210t14.5 239q0 92 -2 183t-4 185h165q2 -90 4.5 -177t2.5 -173q0 -164 -21.5 -318.5t-103.5 -291.5q-12 -23 -21.5 -40t-9.5 -40v-43h102v-78h-102v-71h102v-76h-102 v-129q0 -82 49 -119h-258q49 37 49 119v129h-96v76h96v71h-96v78h96v43q0 27 -9 42t-19 38q-43 70 -69 143.5t-38 152.5t-15 162t-3 175z" />
<glyph unicode="&#xa6;" horiz-adv-x="262" d="M47 -111v830h164v-830h-164zM47 856v830h164v-830h-164z" />
<glyph unicode="&#xa7;" horiz-adv-x="665" d="M33 1419q0 137 108 137h340q-2 -29 -2 -52v-48q0 -35 3 -68.5t14 -70.5l12 -66l-47 -10q-10 55 -16.5 88t-21.5 50.5t-48 21.5t-99 4q-45 0 -45 -70q0 -29 16.5 -48t42 -37.5t55.5 -39t58 -49.5q45 -25 87 -65.5t74 -89t50.5 -100.5t18.5 -103q0 -43 -19.5 -94.5 t-50.5 -100.5t-67.5 -95t-71.5 -79q-47 -137 -98.5 -249.5t-92.5 -184.5h-194q20 27 47 74t55.5 104.5t57 123t51.5 130.5q-82 86 -135.5 171t-53.5 200q0 47 6.5 97t19.5 96t33.5 85t49.5 66q-66 41 -101.5 109.5t-35.5 162.5zM203 817q0 -33 12 -72.5t33.5 -73.5 t48.5 -56.5t57 -22.5q31 0 55.5 22.5t42 56.5t27.5 73.5t10 72.5t-16 69t-43 64.5t-57.5 48t-61.5 19.5t-51 -19.5t-32.5 -48t-18.5 -64.5t-6 -69z" />
<glyph unicode="&#xa8;" horiz-adv-x="534" d="M41 1692q0 35 22.5 59.5t55.5 24.5q35 0 57.5 -25t22.5 -59q0 -35 -22.5 -58.5t-57.5 -23.5q-33 0 -55.5 23.5t-22.5 58.5zM324 1692q0 35 23.5 59.5t55.5 24.5q33 0 56.5 -25t23.5 -59q0 -35 -23.5 -58.5t-56.5 -23.5t-56 23.5t-23 58.5z" />
<glyph unicode="&#xa9;" horiz-adv-x="782" d="M45 782q0 162 27.5 303.5t76 247t112 166t136.5 60.5q74 0 137.5 -60.5t111.5 -166t76 -247t28 -303.5q0 -160 -28 -301t-76 -246.5t-111.5 -166t-137.5 -60.5t-137 60.5t-111.5 166t-76 246.5t-27.5 301zM98 786q0 -147 23.5 -277t63.5 -227.5t95.5 -152.5t116.5 -55 t116.5 55t96.5 152.5t64.5 227.5t23.5 277t-23.5 277.5t-64.5 226.5t-96 152.5t-117 56.5q-61 0 -116.5 -56.5t-95.5 -152.5t-63.5 -226.5t-23.5 -277.5zM213 1047q0 61 6 113t30.5 91t74 60.5t135.5 21.5h25.5t29.5 -2l-14 -153q-8 23 -23.5 29.5t-40.5 6.5 q-70 0 -88 -28.5t-18 -93.5q4 -111 12 -226.5t29.5 -228.5t60.5 -219.5t105 -198.5h-140q-49 88 -85 190.5t-57.5 210t-31.5 216t-10 211.5z" />
<glyph unicode="&#xaa;" horiz-adv-x="532" d="M39 315v125h448v-125h-448zM39 539v125h448v-125h-448zM39 1038q0 33 6 76l6 23q104 193 211 192q43 0 84 -37q-4 47 -22.5 68.5t-65.5 21.5q-41 0 -57.5 -15t-24.5 -40l-137 -6q4 51 17.5 95t39 76t65.5 49.5t99 17.5q123 0 174 -79t51 -196v-24.5t-2 -24.5v-465h-110 l-25 39q-41 -41 -88 -41q-109 0 -209 193q-12 31 -12 77zM168 1049q0 -21 12 -52q35 -35 52.5 -48t29.5 -13q51 0 51 145q0 82 -39 82q-2 0 -4 -1t-6 -1t-6 1t-6 1q-8 0 -22.5 -8t-28 -23.5t-23.5 -37t-10 -45.5z" />
<glyph unicode="&#xab;" horiz-adv-x="1099" d="M31 549v178l575 324v-177l-426 -239l430 -260v-176l-575 348v6zM481 549v178l576 324v-177l-426 -239l430 -260v-176l-576 348v6z" />
<glyph unicode="&#xac;" horiz-adv-x="882" d="M39 375v178h790v-356h-114v178h-676z" />
<glyph unicode="&#xad;" horiz-adv-x="667" d="M49 375v178h576v-178h-576z" />
<glyph unicode="&#xae;" horiz-adv-x="776" d="M39 782q0 162 27.5 303.5t75.5 247t111.5 166t137.5 60.5t137.5 -60.5t111.5 -166t75.5 -247t27.5 -303.5q0 -160 -27.5 -301t-75.5 -246.5t-111.5 -166t-137.5 -60.5t-137.5 60.5t-111.5 166t-75.5 246.5t-27.5 301zM92 786q0 -147 23.5 -277t63.5 -227.5t95.5 -152.5 t116.5 -55t116.5 55t96.5 152.5t64.5 227.5t23.5 277t-23.5 277.5t-64.5 226.5t-96 152.5t-117 56.5q-61 0 -116.5 -56.5t-95.5 -152.5t-63.5 -226.5t-23.5 -277.5zM188 1309h121h19q29 0 62.5 -3t61 -14.5t46 -34t18.5 -63.5q0 -8 -1 -14t-1 -15l-14 -133 q-4 -35 -8.5 -71.5t-10.5 -71.5q45 -113 56.5 -222.5t11.5 -222.5v-100q0 -18 4 -46t25 -34h-115q-14 0 -19.5 48t-7.5 115t-4 138.5t-8 118.5q-20 -49 -53 -92q-12 -20 -25.5 -59t-13.5 -89v-108q0 -51 33 -72h-175q33 20 33 72l-6 893q-2 57 -29 80zM328 1200l2 -452 q12 14 24.5 60t23.5 108.5t18 132t7 133.5q0 18 -75 18z" />
<glyph unicode="&#xaf;" horiz-adv-x="667" d="M51 1225v178h576v-178h-576z" />
<glyph unicode="&#xb0;" horiz-adv-x="405" d="M35 1876q0 84 49 113.5t121 29.5q35 0 65.5 -7t54 -23.5t37 -44t13.5 -68.5t-13.5 -85t-37 -80t-54 -59.5t-65.5 -23.5q-37 0 -68 23.5t-53.5 59.5t-35.5 80t-13 85zM143 1874q0 -23 4.5 -48.5t12.5 -48t19 -37t26 -14.5q12 0 24.5 14.5t20.5 37t13 48t5 48.5 q0 43 -18.5 53t-44.5 10q-29 0 -45.5 -10t-16.5 -53z" />
<glyph unicode="&#xb1;" horiz-adv-x="649" d="M39 129v178h575v-178h-575zM39 584v170h199v202h174v-202h202v-170h-202v-203h-172v203h-201z" />
<glyph unicode="&#xb2;" horiz-adv-x="372" d="M31 903q27 33 53.5 83t50 107.5t43 114t31.5 99.5q-20 -10 -47 -11q-37 0 -68 36t-31 95q0 51 27 83t68 42v-2q10 2 20 3t21 1q39 0 66.5 -16t45 -40.5t25.5 -55.5t8 -60q0 -41 -11 -89t-26.5 -97t-34 -94t-32.5 -78h12q-2 2 5 21.5t17 39.5l66 -32q-10 -25 -13 -51.5 t-3 -53.5v-23.5t2 -21.5h-295z" />
<glyph unicode="&#xb3;" horiz-adv-x="337" d="M25 1397q4 23 8 49.5t4 54.5v22.5t-2 24.5h237l23 -84l-39 -47q49 -23 49 -92q0 -43 -27.5 -155.5t-97.5 -268.5h-129q45 82 69.5 149.5t37 119t15.5 86t3 53.5v2h-12q-10 0 -28.5 -2t-38 -5.5t-39 -5.5t-27.5 -4l102 152z" />
<glyph unicode="&#xb4;" horiz-adv-x="2131" d="M47 1655l111 229h256l-217 -229h-150z" />
<glyph unicode="&#xb5;" horiz-adv-x="573" d="M49 -346v1411h150v-666q0 -86 20.5 -134t59.5 -48q20 0 37.5 19.5t28.5 51t17.5 73.5t6.5 85v619h151v-1063h-151l-2 31q-43 -53 -97 -53q-33 0 -71 67v-393h-150z" />
<glyph unicode="&#xb6;" horiz-adv-x="835" d="M47 1143q0 150 81 237.5t234 87.5h424v-133h-98v-1321h-110v1321h-150v-1321h-111l-14 604q-92 82 -143 147.5t-77 126t-31 120t-5 131.5z" />
<glyph unicode="&#xb7;" horiz-adv-x="256" d="M41 631q0 86 86 86q84 0 84 -86q0 -82 -84 -82q-86 0 -86 82z" />
<glyph unicode="&#xb8;" horiz-adv-x="2131" d="M424 -410l10 115q51 -6 80 -6q137 0 137 78q0 10 -3 21.5t-17.5 20.5t-41 15t-71.5 6l45 174h117l-29 -104q72 -10 110 -52t38 -94q0 -76 -63.5 -132t-188.5 -56q-74 0 -123 14z" />
<glyph unicode="&#xb9;" horiz-adv-x="335" d="M29 905q88 61 88 72v342q-18 -10 -40 -12t-46 -2v98q27 0 42 16.5t24 40t12.5 49t3.5 43.5h172q-45 -57 -45 -69v-506q0 -12 16 -23l47 -43z" />
<glyph unicode="&#xba;" horiz-adv-x="532" d="M37 1284q0 55 10 105.5t37 87t69 59.5t107 23q103 -1 158 -58q35 -39 51 -95t16 -122q0 -92 -19.5 -179t-33.5 -142q-66 -195 -172 -195q-37 0 -76 31.5t-71.5 96.5t-54 162t-21.5 226zM39 315v125h448v-125h-448zM39 539v125h448v-125h-448zM168 1262q0 -84 13.5 -145.5 t28.5 -101.5t29.5 -59.5t18.5 -19.5q25 25 45 68q16 37 30.5 96t14.5 149q0 35 -6.5 67t-22.5 48q-18 18 -61 18q-57 0 -73.5 -33.5t-16.5 -86.5z" />
<glyph unicode="&#xbb;" horiz-adv-x="1112" d="M35 199v176l430 260l-426 239v177l575 -324v-178l-4 4v-6zM485 199v176l430 260l-426 239v177l576 -324v-178l-4 4v-6z" />
<glyph unicode="&#xbc;" horiz-adv-x="831" d="M35 905q88 61 88 72v362q-18 -10 -40 -22t-46 -12v98q27 0 42 16.5t24.5 40t12.5 49t3 43.5h172q-45 -57 -45 -69v-506q0 -6 10 -17.5t53 -48.5zM49 4l561 1557h129l-559 -1557h-131zM428 74q31 41 53.5 82t34.5 84t18.5 88t6.5 94q0 102 -23 207h135q16 -86 17 -174 q0 -82 -12.5 -152t-47.5 -141h31l35 69l67 -2v-69h17q18 0 32.5 17.5t24.5 35.5l25 -6q-18 -47 -25 -125v-8h-80v-35q0 -31 41 -39h-213q51 10 51 41v33h-188z" />
<glyph unicode="&#xbd;" horiz-adv-x="829" d="M37 905q88 61 88 72v342q-18 -10 -40 -12t-46 -2v98q27 0 42 16.5t24.5 40t12.5 49t3 43.5h172q-45 -57 -45 -69v-506q0 -12 16 -23l47 -43zM49 4l561 1557h129l-559 -1557h-131zM432 2q27 33 53.5 83t50 107.5t43 113.5t31.5 100q-20 -10 -47 -11q-37 0 -67.5 36 t-30.5 95q0 51 26.5 83t67.5 42v-2q10 2 20.5 3t20.5 1q39 0 66.5 -16t45 -41t25.5 -55.5t8 -59.5q0 -41 -11 -89t-26.5 -97t-34 -94t-32.5 -78h14q-2 0 -2 2q0 4 7.5 22.5t15.5 36.5l65 -32q-12 -35 -12 -69t-2 -81h-295z" />
<glyph unicode="&#xbe;" horiz-adv-x="808" d="M31 4l561 1557h129l-559 -1557h-131zM70 1401q4 23 8 49.5t4 54.5v22.5t-2 24.5h237l23 -84l-39 -47q49 -23 49 -92q0 -43 -27.5 -155.5t-97.5 -268.5h-129q45 82 69.5 149.5t37 119t15.5 86t3 53.5v2h-12q-10 0 -28.5 -2t-38 -5t-39 -5.5t-27.5 -4.5l102 152zM428 74 q31 41 53.5 82t34.5 84t18.5 88t6.5 94q0 102 -23 207h135q16 -86 17 -174q0 -82 -12.5 -152t-47.5 -141h31l35 69l67 -2v-69h17q18 0 32.5 17.5t24.5 35.5l25 -6q-18 -47 -25 -125v-8h-80v-35q0 -31 41 -39h-213q51 10 51 41v33h-188z" />
<glyph unicode="&#xbf;" horiz-adv-x="567" d="M33 244q0 61 12 127.5t30.5 129t40 118t40.5 94.5q53 115 76.5 221t23.5 215h84q4 -86 6 -158.5t2 -134.5q0 -57 -14.5 -117.5t-42.5 -128.5q-14 -35 -30.5 -76.5t-30 -88t-21.5 -92.5t-8 -89q0 -23 2 -40t10 -30.5t25.5 -20.5t48.5 -7q55 4 79.5 33.5t24.5 87.5 q0 55 -31 55q-24 0 -63 -31l-31 37q33 23 60 35l14 6q61 27 145 45q25 -39 39.5 -99.5t14.5 -119.5q0 -43 -15.5 -81t-47.5 -67.5t-81 -47t-116 -17.5q-117 0 -181.5 59.5t-64.5 182.5zM195 1485q0 82 84 82q88 0 88 -82q0 -88 -88 -88q-84 0 -84 88z" />
<glyph unicode="&#xc0;" horiz-adv-x="630" d="M2 1884h256l110 -229h-147zM33 0v365q0 86 9 206.5t27.5 255t44 268.5t58.5 246q12 45 29.5 82t17.5 60q1 30 -26 73h249q-29 -45 -28 -75q0 -23 18.5 -60t30.5 -80q33 -111 58.5 -245.5t44 -269t27.5 -255t9 -206.5v-365h-166v365q0 39 -2 84t-2 96q-23 -6 -55.5 -23.5 t-66.5 -40t-63.5 -47t-47.5 -49.5v-385h-166zM199 455q74 61 130 93t97 42q-2 16 -3 32.5t-1 36.5q-78 -33 -129 -69.5t-92 -77.5v-33.5t-2 -23.5zM207 580q61 53 111.5 80.5t97.5 46.5q-14 135 -40 274t-61 268q-23 -80 -39 -165t-30.5 -172t-23.5 -171.5t-15 -160.5z" />
<glyph unicode="&#xc1;" horiz-adv-x="628" d="M33 0v365q0 86 9 206.5t27.5 255t44 268.5t58.5 246q12 45 29.5 82t17.5 60q1 30 -26 73h249q-29 -45 -28 -75q0 -23 18.5 -60t30.5 -80q33 -111 58.5 -245.5t44 -269t27.5 -255t9 -206.5v-365h-166v365q0 39 -2 84t-2 96q-23 -6 -55.5 -23.5t-66.5 -40t-63.5 -47 t-47.5 -49.5v-385h-166zM199 455q74 61 130 93t97 42q-2 16 -3 32.5t-1 36.5q-78 -33 -129 -69.5t-92 -77.5v-33.5t-2 -23.5zM205 1655l111 229h256l-217 -229h-150zM207 580q61 53 111.5 80.5t97.5 46.5q-14 135 -40 274t-61 268q-23 -80 -39 -165t-30.5 -172t-23.5 -171.5 t-15 -160.5z" />
<glyph unicode="&#xc2;" horiz-adv-x="628" d="M33 0v365q0 86 9 206.5t27.5 255t44 268.5t58.5 246q12 45 29.5 82t17.5 60q1 30 -26 73h249q-29 -45 -28 -75q0 -23 18.5 -60t30.5 -80q33 -111 58.5 -245.5t44 -269t27.5 -255t9 -206.5v-365h-166v365q0 39 -2 84t-2 96q-23 -6 -55.5 -23.5t-66.5 -40t-63.5 -47 t-47.5 -49.5v-385h-166zM72 1628l109 229h270l108 -229h-147l-98 100l-95 -100h-147zM199 455q74 61 130 93t97 42q-2 16 -3 32.5t-1 36.5q-78 -33 -129 -69.5t-92 -77.5v-33.5t-2 -23.5zM207 580q61 53 111.5 80.5t97.5 46.5q-14 135 -40 274t-61 268q-23 -80 -39 -165 t-30.5 -172t-23.5 -171.5t-15 -160.5z" />
<glyph unicode="&#xc3;" horiz-adv-x="624" d="M29 0v365q0 86 9 206.5t27.5 255t44 268.5t58.5 246q12 45 29.5 82t17.5 60q1 30 -26 73h249q-29 -45 -28 -75q0 -23 18.5 -60t30.5 -80q33 -111 58.5 -245.5t44 -269t27.5 -255t9 -206.5v-365h-166v365q0 39 -2 84t-2 96q-23 -6 -55.5 -23.5t-66.5 -40t-63.5 -47 t-47.5 -49.5v-385h-166zM49 1601q0 123 45 171t113 48q12 0 39.5 -8t57.5 -17t56.5 -16.5t40.5 -7.5q6 0 8 2q-2 2 -2 51l164 2q0 -129 -44 -175t-112 -46q-31 0 -64.5 7.5t-62 16.5t-49 17t-28.5 8q2 0 2 -51zM195 455q74 61 130 93t97 42q-2 16 -3 32.5t-1 36.5 q-78 -33 -129 -69.5t-92 -77.5v-33.5t-2 -23.5zM203 580q61 53 111.5 80.5t97.5 46.5q-14 135 -40 274t-61 268q-23 -80 -39 -165t-30.5 -172t-23.5 -171.5t-15 -160.5z" />
<glyph unicode="&#xc4;" horiz-adv-x="598" d="M2 0v365q0 86 9 206.5t27.5 255t44 268.5t58.5 246q12 45 29.5 82t17.5 60q1 30 -26 73h249q-29 -45 -28 -75q0 -23 18.5 -60t30.5 -80q33 -111 58.5 -245.5t44 -269t27.5 -255t9 -206.5v-365h-166v365q0 39 -2 84t-2 96q-23 -6 -55.5 -23.5t-66.5 -40t-63.5 -47 t-47.5 -49.5v-385h-166zM66 1692q0 35 22.5 59.5t55.5 24.5q35 0 57.5 -25t22.5 -59q0 -35 -22.5 -58.5t-57.5 -23.5q-33 0 -55.5 23.5t-22.5 58.5zM168 455q74 61 130 93t97 42q-2 16 -3 32.5t-1 36.5q-78 -33 -129 -69.5t-92 -77.5v-33.5t-2 -23.5zM176 580 q61 53 111.5 80.5t97.5 46.5q-14 135 -40 274t-61 268q-23 -80 -39 -165t-30.5 -172t-23.5 -171.5t-15 -160.5zM349 1692q0 35 23.5 59.5t55.5 24.5q33 0 56.5 -25t23.5 -59q0 -35 -23.5 -58.5t-56.5 -23.5t-56 23.5t-23 58.5z" />
<glyph unicode="&#xc5;" horiz-adv-x="598" d="M0 0v365q0 86 9 206.5t27.5 255t44 268.5t58.5 246q12 45 29.5 82t17.5 60q1 30 -26 73h2q-23 35 -35 79t-12 85q0 84 49 114t121 30q35 0 65.5 -7.5t54 -23.5t37 -44t13.5 -69t-13.5 -85t-35.5 -79h4q-29 -45 -29 -75q0 -23 18.5 -60t30.5 -80q33 -111 58.5 -245.5 t44 -269t27.5 -255t9 -206.5v-365h-166v365q0 39 -2 84t-2 96q-23 -6 -55.5 -23.5t-66 -40t-63.5 -47t-48 -49.5v-385h-166zM166 455q74 61 130 93t97 42q-2 16 -3 32.5t-1 36.5q-78 -33 -129 -69.5t-92 -77.5v-35q0 -12 -2 -22zM174 580q61 53 111.5 80.5t97.5 46.5 q-14 135 -40 274t-60 268q-23 -80 -39.5 -165t-30.5 -172t-23.5 -171.5t-15.5 -160.5zM223 1718q0 -23 4 -48t12.5 -48t19.5 -37t26 -14q12 0 24.5 14t20.5 37t13 48.5t5 47.5q0 43 -18.5 53.5t-44.5 10.5q-29 0 -45.5 -10.5t-16.5 -53.5z" />
<glyph unicode="&#xc6;" horiz-adv-x="960" d="M27 0l41 365q6 61 21 148t35.5 185.5t47.5 204t57.5 204.5t65.5 188t72 155q12 20 12 45q-1 24 -17 61h533q-2 -20 -3 -38.5t-1 -36.5q0 -109 35 -207l-39 -14q-18 43 -41 86t-53 43h-172v-170h116q47 0 70 65l37 -4l-58 -307l-38 6q0 39 -8.5 57.5t-32.5 18.5l-86 -11 v-884h172q31 0 53 43t41 88l39 -15q-35 -100 -35 -204q0 -16 1 -35t3 -37h-487q49 31 49 106v429q-23 -10 -61 -30t-74.5 -43.5t-63.5 -47t-27 -41.5l-41 -373h-163zM242 455q72 53 123 80.5t92 44.5v67q-20 -10 -38 -19.5t-32 -17.5q-74 -43 -137 -98q-2 -20 -4 -33.5 t-4 -23.5zM262 580q57 47 105.5 71.5t89.5 40.5l2 584q-72 -186 -119 -364t-78 -332z" />
<glyph unicode="&#xc7;" horiz-adv-x="497" d="M25 1159q0 88 8 162t43 127t102.5 83t188.5 30h36q18 0 41 -2l-18 -216q-12 33 -31.5 43.5t-54.5 10.5q-49 0 -79 -9.5t-47 -29t-22.5 -53t-5.5 -82.5q4 -154 16.5 -316t43 -321.5t86 -309t145.5 -276.5h-74l-24 -90q72 -10 109.5 -52t37.5 -94q0 -76 -63.5 -132 t-188.5 -56q-74 0 -122 14l10 115q51 -6 80 -6q137 0 137 78q0 10 -3 21.5t-17.5 20.5t-41 15t-71.5 6l41 160h-4q-72 125 -121 269.5t-80 295t-44 302t-13 292.5z" />
<glyph unicode="&#xc8;" horiz-adv-x="557" d="M14 0q47 31 47 106v1350q0 47 -41 100h480q-2 -16 -2 -33.5v-33.5q0 -119 32 -215l-38 -14q-16 43 -40 86t-55 43h-172v-170h119q47 0 70 65l35 -4l-56 -307l-39 6q0 76 -41 76h-88v-895h172q31 0 54.5 43t40.5 88l38 -15q-33 -98 -32 -213v-31.5t2 -31.5h-486zM58 1849 h256l110 -229h-147z" />
<glyph unicode="&#xc9;" horiz-adv-x="542" d="M2 0q47 31 47 106v1350q0 47 -41 100h480q-2 -16 -2 -33.5v-33.5q0 -119 32 -215l-38 -14q-16 43 -40 86t-55 43h-172v-170h119q47 0 70 65l35 -4l-56 -307l-39 6q0 76 -41 76h-88v-895h172q31 0 54.5 43t40.5 88l38 -15q-33 -98 -32 -213v-31.5t2 -31.5h-486zM84 1639 l111 229h256l-217 -229h-150z" />
<glyph unicode="&#xca;" horiz-adv-x="561" d="M18 0q47 31 47 106v1350q0 47 -41 100h480q-2 -16 -2 -33.5v-33.5q0 -119 32 -215l-38 -14q-16 43 -40 86t-55 43h-172v-170h119q47 0 70 65l35 -4l-56 -307l-39 6q0 76 -41 76h-88v-895h172q31 0 54.5 43t40.5 88l38 -15q-33 -98 -32 -213v-31.5t2 -31.5h-486zM21 1630 l109 229h270l108 -229h-147l-98 100l-95 -100h-147z" />
<glyph unicode="&#xcb;" horiz-adv-x="561" d="M18 0q47 31 47 106v1350q0 47 -41 100h480q-2 -16 -2 -33.5v-33.5q0 -119 32 -215l-38 -14q-16 43 -40 86t-55 43h-172v-170h119q47 0 70 65l35 -4l-56 -307l-39 6q0 76 -41 76h-88v-895h172q31 0 54.5 43t40.5 88l38 -15q-33 -98 -32 -213v-31.5t2 -31.5h-486zM49 1686 q0 35 22.5 59.5t55.5 24.5q35 0 57.5 -25t22.5 -59q0 -35 -22.5 -58.5t-57.5 -23.5q-33 0 -55.5 23.5t-22.5 58.5zM332 1686q0 35 23.5 59.5t55.5 24.5q33 0 56.5 -25t23.5 -59q0 -35 -23.5 -58.5t-56.5 -23.5t-56 23.5t-23 58.5z" />
<glyph unicode="&#xcc;" horiz-adv-x="290" d="M-127 1884h256l110 -229h-147zM21 0q47 30 47 106v1350q0 47 -41 100h246q-41 -53 -41 -100v-1350q0 -76 49 -106h-260z" />
<glyph unicode="&#xcd;" horiz-adv-x="296" d="M27 0q47 30 47 106v1350q0 47 -41 100h246q-41 -53 -41 -100v-1350q0 -76 49 -106h-260zM63 1655l111 229h256l-217 -229h-150z" />
<glyph unicode="&#xce;" horiz-adv-x="305" d="M-76 1655l109 229h270l108 -229h-147l-98 100l-95 -100h-147zM35 0q47 30 47 106v1350q0 47 -41 100h246q-41 -53 -41 -100v-1350q0 -76 49 -106h-260z" />
<glyph unicode="&#xcf;" horiz-adv-x="296" d="M-59 1692q0 35 22.5 59.5t55.5 24.5q35 0 57.5 -25t22.5 -59q0 -35 -22.5 -58.5t-57.5 -23.5q-33 0 -55.5 23.5t-22.5 58.5zM27 0q47 30 47 106v1350q0 47 -41 100h246q-41 -53 -41 -100v-1350q0 -76 49 -106h-260zM224 1692q0 35 23.5 59.5t55.5 24.5q33 0 56.5 -25 t23.5 -59q0 -35 -23.5 -58.5t-56.5 -23.5t-56 23.5t-23 58.5z" />
<glyph unicode="&#xd0;" horiz-adv-x="616" d="M27 0q47 31 47 106v945h-45v157h45v248q0 47 -41 100h235q315 0 316 -301q0 -82 -2 -137t-6.5 -108.5t-10.5 -118t-14 -164.5q-8 -115 -30.5 -242t-64.5 -235.5t-103.5 -179t-149.5 -70.5h-176zM238 170q33 23 56 79t39.5 131t28 161t19.5 169t13 155.5t12 119.5 q4 29 10 93.5t6 152.5q0 45 -3 74.5t-21.5 47t-55.5 25.5t-104 11v-181h67v-157h-67v-881z" />
<glyph unicode="&#xd1;" horiz-adv-x="708" d="M2 0q47 31 47 106v1350q0 47 -41 100h39q72 0 129 -7t106.5 -33.5t93.5 -79t91 -140.5v160q0 45 -43 100h246q-41 -59 -41 -100v-1350q0 -76 49 -106h-262q51 33 51 106v402q0 113 -15.5 243t-47 250.5t-80 218t-111.5 146.5v-1260q0 -76 49 -106h-260zM57 1616 q0 123 45 171t113 48q12 0 39.5 -8t57.5 -17t56.5 -16.5t40.5 -7.5q6 0 8 2q-2 2 -2 51l164 2q0 -129 -44 -175t-112 -46q-31 0 -64.5 7.5t-62 16.5t-49 17t-28.5 8q2 0 2 -51z" />
<glyph unicode="&#xd2;" horiz-adv-x="761" d="M35 1133q0 86 16.5 163.5t56 136t105 92.5t166.5 34q159 -1 241 -89q57 -59 80 -151t23 -197q0 -68 -8 -137.5t-20.5 -131.5t-27 -117.5t-26.5 -94.5q-98 -301 -262 -301q-168 0 -262 301q-14 43 -28.5 99.5t-27 120t-19.5 132t-7 140.5zM92 1843h256l110 -229h-147z M197 1149q0 -63 9 -134t21.5 -134.5t25.5 -113.5t21 -75q61 -188 105 -188q10 0 31.5 24.5t46 84t50 157.5t44.5 246q4 33 5 64.5t1 64.5q0 78 -12 128t-43 83q-35 37 -123 37q-55 0 -91 -17.5t-56.5 -49.5t-27.5 -77t-7 -100zM264 113q0 113 115 112q117 0 117 -112 q0 -113 -117 -113q-115 0 -115 113z" />
<glyph unicode="&#xd3;" horiz-adv-x="759" d="M33 1133q0 86 16.5 163.5t56 136t105 92.5t166.5 34q159 -1 241 -89q57 -59 80 -151t23 -197q0 -68 -8 -137.5t-20.5 -131.5t-27 -117.5t-26.5 -94.5q-98 -301 -262 -301q-168 0 -262 301q-14 43 -28.5 99.5t-27 120t-19.5 132t-7 140.5zM195 1149q0 -63 9 -134 t21.5 -134.5t25.5 -113.5t21 -75q61 -188 105 -188q10 0 31.5 24.5t46 84t50 157.5t44.5 246q4 33 5 64.5t1 64.5q0 78 -12 128t-43 83q-35 37 -123 37q-55 0 -91 -17.5t-56.5 -49.5t-27.5 -77t-7 -100zM262 113q0 113 115 112q117 0 117 -112q0 -113 -117 -113 q-115 0 -115 113zM291 1608l111 229h256l-217 -229h-150z" />
<glyph unicode="&#xd4;" horiz-adv-x="765" d="M39 1133q0 86 16.5 163.5t56 136t105 92.5t166.5 34q159 -1 241 -89q57 -59 80 -151t23 -197q0 -68 -8 -137.5t-20.5 -131.5t-27 -117.5t-26.5 -94.5q-98 -301 -262 -301q-168 0 -262 301q-14 43 -28.5 99.5t-27 120t-19.5 132t-7 140.5zM150 1600l109 229h270l108 -229 h-147l-98 100l-95 -100h-147zM201 1149q0 -63 9 -134t21.5 -134.5t25.5 -113.5t21 -75q61 -188 105 -188q10 0 31.5 24.5t46 84t50 157.5t44.5 246q4 33 5 64.5t1 64.5q0 78 -12 128t-43 83q-35 37 -123 37q-55 0 -91 -17.5t-56.5 -49.5t-27.5 -77t-7 -100zM268 113 q0 113 115 112q117 0 117 -112q0 -113 -117 -113q-115 0 -115 113z" />
<glyph unicode="&#xd5;" horiz-adv-x="759" d="M33 1133q0 86 16.5 163.5t56 136t105 92.5t166.5 34q159 -1 241 -89q57 -59 80 -151t23 -197q0 -68 -8 -137.5t-20.5 -131.5t-27 -117.5t-26.5 -94.5q-98 -301 -262 -301q-168 0 -262 301q-14 43 -28.5 99.5t-27 120t-19.5 132t-7 140.5zM115 1595q0 123 45 171t113 48 q12 0 39.5 -8t57.5 -17t56.5 -16.5t40.5 -7.5q6 0 8 2q-2 2 -2 51l164 2q0 -129 -44 -175t-112 -46q-31 0 -64.5 7.5t-62 16.5t-49 17t-28.5 8q2 0 2 -51zM195 1149q0 -63 9 -134t21.5 -134.5t25.5 -113.5t21 -75q61 -188 105 -188q10 0 31.5 24.5t46 84t50 157.5t44.5 246 q4 33 5 64.5t1 64.5q0 78 -12 128t-43 83q-35 37 -123 37q-55 0 -91 -17.5t-56.5 -49.5t-27.5 -77t-7 -100zM262 113q0 113 115 112q117 0 117 -112q0 -113 -117 -113q-115 0 -115 113z" />
<glyph unicode="&#xd6;" horiz-adv-x="757" d="M33 1133q0 86 16.5 163.5t56 136t105 92.5t166.5 34q159 -1 241 -89q57 -59 80 -151t23 -197q0 -68 -8 -137.5t-20.5 -131.5t-27 -117.5t-26.5 -94.5q-98 -301 -262 -301q-168 0 -262 301q-14 43 -28.5 99.5t-27 120t-19.5 132t-7 140.5zM162 1672q0 35 22.5 59.5 t55.5 24.5q35 0 57.5 -25t22.5 -59q0 -35 -22.5 -58.5t-57.5 -23.5q-33 0 -55.5 23.5t-22.5 58.5zM195 1149q0 -63 9 -134t21.5 -134.5t25.5 -113.5t21 -75q61 -188 105 -188q10 0 31.5 24.5t46 84t50 157.5t44.5 246q4 33 5 64.5t1 64.5q0 78 -12 128t-43 83 q-35 37 -123 37q-55 0 -91 -17.5t-56.5 -49.5t-27.5 -77t-7 -100zM262 113q0 113 115 112q117 0 117 -112q0 -113 -117 -113q-115 0 -115 113zM445 1672q0 35 23.5 59.5t55.5 24.5q33 0 56.5 -25t23.5 -59q0 -35 -23.5 -58.5t-56.5 -23.5t-56 23.5t-23 58.5z" />
<glyph unicode="&#xd7;" horiz-adv-x="610" d="M47 322l141 141l-141 143l123 123l141 -143l144 143l123 -123l-144 -143l144 -141l-123 -123l-144 141l-141 -141z" />
<glyph unicode="&#xd8;" horiz-adv-x="757" d="M31 1133q0 86 16 163.5t56 136t105.5 92.5t166.5 34q92 0 160 -31l10 24h157l-51 -125q39 -61 53.5 -143t14.5 -166q0 -68 -8.5 -136.5t-20.5 -131t-26.5 -116.5t-26.5 -93q-102 -301 -262 -301q-78 0 -139 63l-29 -65h-160l92 225q-14 33 -32.5 92.5t-36 135 t-28.5 163.5t-11 179zM193 1149q0 -78 13.5 -167t29.5 -163q2 -4 2 -14l233 569q-35 18 -96 19q-55 0 -91 -17.5t-56.5 -49.5t-27.5 -77t-7 -100zM260 113q0 113 115 112q117 0 117 -112q0 -113 -117 -113q-115 0 -115 113zM309 588q35 -84 66 -84q10 0 30.5 24.5t46 84 t51.5 158t44 245.5q6 61 6 125v43z" />
<glyph unicode="&#xd9;" horiz-adv-x="643" d="M25 434q0 104 13 232.5t32.5 263.5t41 268t35.5 248q0 8 -5 26.5t-13 37t-19.5 31.5t-23.5 15h235q-8 -147 -29.5 -298.5t-45 -296t-41 -275.5t-17.5 -237q0 -51 6.5 -102.5t22.5 -93.5t48 -67.5t81 -25.5q18 2 68 28v1268q0 47 -45 100h249q-45 -53 -45 -100v-1350 q0 -74 50 -106h-72q-23 0 -39 6t-33 29q-41 -23 -78 -30t-73 -7q-68 0 -123.5 32.5t-95 90t-62 137.5t-22.5 176zM154 1884h256l110 -229h-147z" />
<glyph unicode="&#xda;" horiz-adv-x="657" d="M31 434q0 104 13 232.5t32.5 263.5t41 268t35.5 248q0 8 -5 26.5t-13 37t-19.5 31.5t-23.5 15h235q-8 -147 -29.5 -298.5t-45 -296t-41 -275.5t-17.5 -237q0 -51 6.5 -102.5t22.5 -93.5t48 -67.5t81 -25.5q18 2 68 28v1268q0 47 -45 100h249q-45 -53 -45 -100v-1350 q0 -74 50 -106h-72q-23 0 -39 6t-33 29q-41 -23 -78 -30t-73 -7q-68 0 -123.5 32.5t-95 90t-62 137.5t-22.5 176zM160 1655l111 229h256l-217 -229h-150z" />
<glyph unicode="&#xdb;" horiz-adv-x="657" d="M31 434q0 104 13 232.5t32.5 263.5t41 268t35.5 248q0 8 -5 26.5t-13 37t-19.5 31.5t-23.5 15h235q-8 -147 -29.5 -298.5t-45 -296t-41 -275.5t-17.5 -237q0 -51 6.5 -102.5t22.5 -93.5t48 -67.5t81 -25.5q18 2 68 28v1268q0 47 -45 100h249q-45 -53 -45 -100v-1350 q0 -74 50 -106h-72q-23 0 -39 6t-33 29q-41 -23 -78 -30t-73 -7q-68 0 -123.5 32.5t-95 90t-62 137.5t-22.5 176zM98 1655l109 229h270l108 -229h-147l-98 100l-95 -100h-147z" />
<glyph unicode="&#xdc;" horiz-adv-x="651" d="M25 434q0 104 13 232.5t32.5 263.5t41 268t35.5 248q0 8 -5 26.5t-13 37t-19.5 31.5t-23.5 15h235q-8 -147 -29.5 -298.5t-45 -296t-41 -275.5t-17.5 -237q0 -51 6.5 -102.5t22.5 -93.5t48 -67.5t81 -25.5q18 2 68 28v1268q0 47 -45 100h249q-45 -53 -45 -100v-1350 q0 -74 50 -106h-72q-23 0 -39 6t-33 29q-41 -23 -78 -30t-73 -7q-68 0 -123.5 32.5t-95 90t-62 137.5t-22.5 176zM129 1680q0 35 22.5 59.5t55.5 24.5q35 0 57.5 -25t22.5 -59q0 -35 -22.5 -58.5t-57.5 -23.5q-33 0 -55.5 23.5t-22.5 58.5zM412 1680q0 35 23.5 59.5 t55.5 24.5q33 0 56.5 -25t23.5 -59q0 -35 -23.5 -58.5t-56.5 -23.5t-56 23.5t-23 58.5z" />
<glyph unicode="&#xdd;" horiz-adv-x="522" d="M29 1229q0 162 6 327h168q-4 -84 -8 -164.5t-4 -160.5q0 -137 14 -259t59 -233q39 100 53.5 210t14.5 239q0 92 -2 183t-4 185h166q2 -90 4 -177t2 -173q0 -164 -21.5 -318.5t-103.5 -291.5q-12 -23 -21.5 -40t-9.5 -40v-397q0 -82 49 -119h-258q49 37 49 119v397 q0 27 -9 42t-19 38q-43 70 -69 143.5t-38 152.5t-15 162t-3 175zM178 1635l111 229h256l-217 -229h-150z" />
<glyph unicode="&#xde;" horiz-adv-x="550" d="M27 0q49 31 49 106l-8 1350q0 47 -41 100h245q-41 -53 -41 -100v-121q43 -2 92.5 -6t91.5 -20.5t69.5 -50t27.5 -95.5q0 -109 -19.5 -210t-41.5 -179q-41 -145 -154 -287q-20 -31 -38.5 -88t-18.5 -131v-162q0 -76 47 -106h-260zM231 1171l5 -452q20 27 39.5 58.5 t35 79.5t25.5 116.5t10 171.5q0 20 -27.5 23t-87.5 3z" />
<glyph unicode="&#xdf;" horiz-adv-x="929" d="M20 1419q0 137 109 137h739q-2 -29 -2 -52v-48q0 -35 3 -68.5t14 -70.5l12 -66l-47 -10q-10 55 -16.5 88t-21.5 50.5t-48 21.5t-98 4q-45 0 -46 -70q0 -33 22 -57.5t62 -46.5q104 -59 142.5 -157.5t38.5 -235.5q0 -106 -27 -225t-66.5 -233t-85 -213t-83.5 -167h-195 q41 55 91 153.5t94 216t74 241.5t30 229q0 106 -30 180t-107 117q-53 29 -90 72.5t-54 105.5q-4 18 -6 34.5t-16.5 29t-47 19.5t-100.5 7q-45 0 -45 -70q0 -33 21.5 -57.5t62.5 -46.5q104 -59 142 -157.5t38 -235.5q0 -106 -26.5 -225t-66.5 -233t-85 -213t-84 -167h-194 q41 55 91 153.5t94 216t73.5 241.5t29.5 229q0 106 -29.5 180t-107.5 117q-76 41 -117 110.5t-41 171.5z" />
<glyph unicode="&#xe0;" horiz-adv-x="628" d="M0 1857h256l110 -229h-147zM33 0v365q0 86 9 206.5t27.5 255t44 268.5t58.5 246q12 45 29.5 82t17.5 60q1 30 -26 73h249q-29 -45 -28 -75q0 -23 18.5 -60t30.5 -80q33 -111 58.5 -245.5t44 -269t27.5 -255t9 -206.5v-365h-166v365q0 39 -2 84t-2 96q-23 -6 -55.5 -23.5 t-66.5 -40t-63.5 -47t-47.5 -49.5v-385h-166zM199 455q74 61 130 93t97 42q-2 16 -3 32.5t-1 36.5q-78 -33 -129 -69.5t-92 -77.5v-33.5t-2 -23.5zM207 580q61 53 111.5 80.5t97.5 46.5q-14 135 -40 274t-61 268q-23 -80 -39 -165t-30.5 -172t-23.5 -171.5t-15 -160.5z" />
<glyph unicode="&#xe1;" horiz-adv-x="632" d="M35 0v365q0 86 9 206.5t27.5 255t44 268.5t58.5 246q12 45 29.5 82t17.5 60q1 30 -26 73h249q-29 -45 -28 -75q0 -23 18.5 -60t30.5 -80q33 -111 58.5 -245.5t44 -269t27.5 -255t9 -206.5v-365h-166v365q0 39 -2 84t-2 96q-23 -6 -55.5 -23.5t-66.5 -40t-63.5 -47 t-47.5 -49.5v-385h-166zM201 455q74 61 130 93t97 42q-2 16 -3 32.5t-1 36.5q-78 -33 -129 -69.5t-92 -77.5v-33.5t-2 -23.5zM209 580q61 53 111.5 80.5t97.5 46.5q-14 135 -40 274t-61 268q-23 -80 -39 -165t-30.5 -172t-23.5 -171.5t-15 -160.5zM229 1632l111 229h256 l-217 -229h-150z" />
<glyph unicode="&#xe2;" horiz-adv-x="624" d="M29 0v365q0 86 9 206.5t27.5 255t44 268.5t58.5 246q12 45 29.5 82t17.5 60q1 30 -26 73h249q-29 -45 -28 -75q0 -23 18.5 -60t30.5 -80q33 -111 58.5 -245.5t44 -269t27.5 -255t9 -206.5v-365h-166v365q0 39 -2 84t-2 96q-23 -6 -55.5 -23.5t-66.5 -40t-63.5 -47 t-47.5 -49.5v-385h-166zM70 1618l109 229h270l108 -229h-147l-98 100l-95 -100h-147zM195 455q74 61 130 93t97 42q-2 16 -3 32.5t-1 36.5q-78 -33 -129 -69.5t-92 -77.5v-33.5t-2 -23.5zM203 580q61 53 111.5 80.5t97.5 46.5q-14 135 -40 274t-61 268q-23 -80 -39 -165 t-30.5 -172t-23.5 -171.5t-15 -160.5z" />
<glyph unicode="&#xe3;" horiz-adv-x="624" d="M29 0v365q0 86 9 206.5t27.5 255t44 268.5t58.5 246q12 45 29.5 82t17.5 60q1 30 -26 73h249q-29 -45 -28 -75q0 -23 18.5 -60t30.5 -80q33 -111 58.5 -245.5t44 -269t27.5 -255t9 -206.5v-365h-166v365q0 39 -2 84t-2 96q-23 -6 -55.5 -23.5t-66.5 -40t-63.5 -47 t-47.5 -49.5v-385h-166zM51 1605q0 123 45 171t113 48q12 0 39.5 -8t57.5 -17t56.5 -16.5t40.5 -7.5q6 0 8 2q-2 2 -2 51l164 2q0 -129 -44 -175t-112 -46q-31 0 -64.5 7.5t-62 16.5t-49 17t-28.5 8q2 0 2 -51zM195 455q74 61 130 93t97 42q-2 16 -3 32.5t-1 36.5 q-78 -33 -129 -69.5t-92 -77.5v-33.5t-2 -23.5zM203 580q61 53 111.5 80.5t97.5 46.5q-14 135 -40 274t-61 268q-23 -80 -39 -165t-30.5 -172t-23.5 -171.5t-15 -160.5z" />
<glyph unicode="&#xe4;" horiz-adv-x="628" d="M33 0v365q0 86 9 206.5t27.5 255t44 268.5t58.5 246q12 45 29.5 82t17.5 60q1 30 -26 73h249q-29 -45 -28 -75q0 -23 18.5 -60t30.5 -80q33 -111 58.5 -245.5t44 -269t27.5 -255t9 -206.5v-365h-166v365q0 39 -2 84t-2 96q-23 -6 -55.5 -23.5t-66.5 -40t-63.5 -47 t-47.5 -49.5v-385h-166zM96 1688q0 35 22.5 59.5t55.5 24.5q35 0 57.5 -25t22.5 -59q0 -35 -22.5 -58.5t-57.5 -23.5q-33 0 -55.5 23.5t-22.5 58.5zM199 455q74 61 130 93t97 42q-2 16 -3 32.5t-1 36.5q-78 -33 -129 -69.5t-92 -77.5v-33.5t-2 -23.5zM207 580 q61 53 111.5 80.5t97.5 46.5q-14 135 -40 274t-61 268q-23 -80 -39 -165t-30.5 -172t-23.5 -171.5t-15 -160.5zM379 1688q0 35 23.5 59.5t55.5 24.5q33 0 56.5 -25t23.5 -59q0 -35 -23.5 -58.5t-56.5 -23.5t-56 23.5t-23 58.5z" />
<glyph unicode="&#xe5;" horiz-adv-x="628" d="M31 0v365q0 86 9 206.5t27.5 255t44 268.5t58.5 246q12 45 29.5 82t17.5 60q0 30 -27 73h7q-23 35 -35 78t-12 84q0 84 49 114t120 30q35 0 66 -7.5t54.5 -23.5t36.5 -44t13 -69q0 -47 -16 -95t-45 -87q-16 -33 -16 -55q0 -23 18.5 -60t30.5 -80q33 -111 58.5 -245.5 t44 -269t27.5 -255t9 -206.5v-365h-166v365q0 39 -2 84t-2 96q-23 -6 -55.5 -23.5t-66.5 -40t-63.5 -47t-47.5 -49.5v-385h-166zM197 455q74 61 130 93t97 42q-2 16 -3 32.5t-1 36.5q-78 -33 -129 -69.5t-92 -77.5v-35q0 -12 -2 -22zM205 580q61 53 111.5 80.5t97.5 46.5 q-14 135 -40 274t-61 268q-23 -80 -39 -165t-30.5 -172t-23.5 -171.5t-15 -160.5zM258 1716q0 -23 4 -48.5t12.5 -48t19.5 -36.5t25 -14q12 0 24.5 14t21 36.5t13.5 48.5t5 48q0 43 -18.5 53.5t-45.5 10.5q-29 0 -45 -10.5t-16 -53.5z" />
<glyph unicode="&#xe6;" horiz-adv-x="962" d="M33 0l41 365q6 61 21.5 148t36 185.5t47 204t57 204.5t65.5 188t72 155q12 20 12 45q0 24 -16 61h532q-2 -20 -3 -38.5t-1 -36.5q0 -109 35 -207l-39 -14q-18 43 -41 86t-53 43h-172v-170h116q47 0 70 65l37 -4l-57 -307l-39 6q0 39 -8.5 57.5t-32.5 18.5l-86 -11v-884 h172q31 0 53 43t41 88l39 -15q-35 -100 -35 -204q0 -16 1 -35t3 -37h-487q49 31 49 106v429q-23 -10 -60.5 -30t-74.5 -43.5t-63.5 -47t-26.5 -41.5l-41 -373h-164zM248 455q72 53 123 80.5t92 44.5v67q-20 -10 -38 -19.5t-32 -17.5q-74 -43 -137 -98q-2 -20 -4 -33.5 t-4 -23.5zM268 580q57 47 105.5 71.5t89.5 40.5l2 584q-72 -186 -119 -364t-78 -332z" />
<glyph unicode="&#xe7;" horiz-adv-x="501" d="M29 1159q0 88 8 162t43 127t102.5 83t188.5 30h37q18 0 41 -2l-19 -216q-12 33 -31.5 43.5t-54.5 10.5q-49 0 -78.5 -9.5t-47 -29t-23 -53t-5.5 -82.5q4 -154 16.5 -316t43.5 -321.5t86 -309t145 -276.5h-73l-25 -90q72 -10 109.5 -52t37.5 -94q0 -76 -63.5 -132 t-187.5 -56q-74 0 -123 14l10 115q51 -6 80 -6q137 0 137 78q0 10 -3 21.5t-17.5 20.5t-41 15t-71.5 6l41 160h-4q-72 125 -121 269.5t-80 295t-44 302t-13 292.5z" />
<glyph unicode="&#xe8;" horiz-adv-x="575" d="M31 1843h256l110 -229h-147zM32 0q47 31 47 106v1350q0 47 -41 100h480q-2 -16 -2 -33.5v-33.5q0 -119 32 -215l-38 -14q-16 43 -40 86t-55 43h-172v-170h119q47 0 70 65l35 -4l-56 -307l-39 6q0 76 -41 76h-88v-895h172q31 0 54.5 43t40.5 88l38 -15q-33 -98 -32 -213 v-31.5t2 -31.5h-486z" />
<glyph unicode="&#xe9;" horiz-adv-x="559" d="M16 0q47 31 47 106v1350q0 47 -41 100h480q-2 -16 -2 -33.5v-33.5q0 -119 32 -215l-38 -14q-16 43 -40 86t-55 43h-172v-170h119q47 0 70 65l35 -4l-56 -307l-39 6q0 76 -41 76h-88v-895h172q31 0 54.5 43t40.5 88l38 -15q-33 -98 -32 -213v-31.5t2 -31.5h-486zM166 1604 l111 229h256l-217 -229h-150z" />
<glyph unicode="&#xea;" horiz-adv-x="565" d="M22 0q47 31 47 106v1350q0 47 -41 100h480q-2 -16 -2 -33.5v-33.5q0 -119 32 -215l-38 -14q-16 43 -40 86t-55 43h-172v-170h119q47 0 70 65l35 -4l-56 -307l-39 6q0 76 -41 76h-88v-895h172q31 0 54.5 43t40.5 88l38 -15q-33 -98 -32 -213v-31.5t2 -31.5h-486zM29 1610 l109 229h270l108 -229h-147l-98 100l-95 -100h-147z" />
<glyph unicode="&#xeb;" horiz-adv-x="569" d="M26 0q47 31 47 106v1350q0 47 -41 100h480q-2 -16 -2 -33.5v-33.5q0 -119 32 -215l-38 -14q-16 43 -40 86t-55 43h-172v-170h119q47 0 70 65l35 -4l-56 -307l-39 6q0 76 -41 76h-88v-895h172q31 0 54.5 43t40.5 88l38 -15q-33 -98 -32 -213v-31.5t2 -31.5h-486zM57 1678 q0 35 22.5 59.5t55.5 24.5q35 0 57.5 -25t22.5 -59q0 -35 -22.5 -58.5t-57.5 -23.5q-33 0 -55.5 23.5t-22.5 58.5zM340 1678q0 35 23.5 59.5t55.5 24.5q33 0 56.5 -25t23.5 -59q0 -35 -23.5 -58.5t-56.5 -23.5t-56 23.5t-23 58.5z" />
<glyph unicode="&#xec;" horiz-adv-x="303" d="M-125 1853h256l110 -229h-147zM33 0q47 30 47 106v1350q0 47 -41 100h246q-41 -53 -41 -100v-1350q0 -76 49 -106h-260z" />
<glyph unicode="&#xed;" horiz-adv-x="296" d="M27 0q47 30 47 106v1350q0 47 -41 100h246q-41 -53 -41 -100v-1350q0 -76 49 -106h-260zM70 1632l111 229h256l-217 -229h-150z" />
<glyph unicode="&#xee;" horiz-adv-x="294" d="M-86 1632l109 229h270l108 -229h-147l-98 100l-95 -100h-147zM25 0q47 30 47 106v1350q0 47 -41 100h246q-41 -53 -41 -100v-1350q0 -76 49 -106h-260z" />
<glyph unicode="&#xef;" horiz-adv-x="299" d="M-57 1692q0 35 22.5 59.5t55.5 24.5q35 0 57.5 -25t22.5 -59q0 -35 -22.5 -58.5t-57.5 -23.5q-33 0 -55.5 23.5t-22.5 58.5zM29 0q47 30 47 106v1350q0 47 -41 100h246q-41 -53 -41 -100v-1350q0 -76 49 -106h-260zM226 1692q0 35 23.5 59.5t55.5 24.5q33 0 56.5 -25 t23.5 -59q0 -35 -23.5 -58.5t-56.5 -23.5t-56 23.5t-23 58.5z" />
<glyph unicode="&#xf0;" horiz-adv-x="620" d="M31 0q47 31 47 106v945h-45v157h45v248q0 47 -41 100h235q315 0 316 -301q0 -82 -2 -137t-6.5 -108.5t-10.5 -118t-14 -164.5q-8 -115 -30.5 -242t-64.5 -235.5t-103.5 -179t-149.5 -70.5h-176zM242 170q33 23 56.5 79t39.5 131t27.5 161t19.5 169t13 155.5t12 119.5 q4 29 10 93.5t6 152.5q0 45 -3 74.5t-21.5 47t-55.5 25.5t-104 11v-181h67v-157h-67v-881z" />
<glyph unicode="&#xf1;" horiz-adv-x="739" d="M33 0q47 31 47 106v1350q0 47 -41 100h39q72 0 129 -7t106.5 -33.5t93.5 -79t91 -140.5v160q0 45 -43 100h246q-41 -59 -41 -100v-1350q0 -76 49 -106h-262q51 33 51 106v402q0 113 -15.5 243t-47 250.5t-80 218t-111.5 146.5v-1260q0 -76 49 -106h-260zM105 1597 q0 123 45 171t113 48q12 0 39.5 -8t57.5 -17t56.5 -16.5t40.5 -7.5q6 0 8 2q-2 2 -2 51l164 2q0 -129 -44 -175t-112 -46q-31 0 -64.5 7.5t-62 16.5t-49 17t-28.5 8q2 0 2 -51z" />
<glyph unicode="&#xf2;" horiz-adv-x="751" d="M27 1133q0 86 16.5 163.5t56 136t105 92.5t166.5 34q159 -1 241 -89q57 -59 80 -151t23 -197q0 -68 -8 -137.5t-20.5 -131.5t-27 -117.5t-26.5 -94.5q-98 -301 -262 -301q-168 0 -262 301q-14 43 -28.5 99.5t-27 120t-19.5 132t-7 140.5zM92 1831h256l110 -229h-147z M189 1149q0 -63 9 -134t21.5 -134.5t25.5 -113.5t21 -75q61 -188 105 -188q10 0 31.5 24.5t46 84t50 157.5t44.5 246q4 33 5 64.5t1 64.5q0 78 -12 128t-43 83q-35 37 -123 37q-55 0 -91 -17.5t-56.5 -49.5t-27.5 -77t-7 -100zM256 113q0 113 115 112q117 0 117 -112 q0 -113 -117 -113q-115 0 -115 113z" />
<glyph unicode="&#xf3;" horiz-adv-x="753" d="M29 1133q0 86 16.5 163.5t56 136t105 92.5t166.5 34q159 -1 241 -89q57 -59 80 -151t23 -197q0 -68 -8 -137.5t-20.5 -131.5t-27 -117.5t-26.5 -94.5q-98 -301 -262 -301q-168 0 -262 301q-14 43 -28.5 99.5t-27 120t-19.5 132t-7 140.5zM191 1149q0 -63 9 -134 t21.5 -134.5t25.5 -113.5t21 -75q61 -188 105 -188q10 0 31.5 24.5t46 84t50 157.5t44.5 246q4 33 5 64.5t1 64.5q0 78 -12 128t-43 83q-35 37 -123 37q-55 0 -91 -17.5t-56.5 -49.5t-27.5 -77t-7 -100zM258 113q0 113 115 112q117 0 117 -112q0 -113 -117 -113 q-115 0 -115 113zM309 1612l111 229h256l-217 -229h-150z" />
<glyph unicode="&#xf4;" horiz-adv-x="735" d="M25 1133q0 86 16.5 163.5t56 136t105 92.5t166.5 34q159 -1 241 -89q57 -59 80 -151t23 -197q0 -68 -8 -137.5t-20.5 -131.5t-27 -117.5t-26.5 -94.5q-98 -301 -262 -301q-168 0 -262 301q-14 43 -28.5 99.5t-27 120t-19.5 132t-7 140.5zM125 1587l109 229h270l108 -229 h-147l-98 100l-95 -100h-147zM187 1149q0 -63 9 -134t21.5 -134.5t25.5 -113.5t21 -75q61 -188 105 -188q10 0 31.5 24.5t46 84t50 157.5t44.5 246q4 33 5 64.5t1 64.5q0 78 -12 128t-43 83q-35 37 -123 37q-55 0 -91 -17.5t-56.5 -49.5t-27.5 -77t-7 -100zM254 113 q0 113 115 112q117 0 117 -112q0 -113 -117 -113q-115 0 -115 113z" />
<glyph unicode="&#xf5;" horiz-adv-x="735" d="M25 1133q0 86 16.5 163.5t56 136t105 92.5t166.5 34q159 -1 241 -89q57 -59 80 -151t23 -197q0 -68 -8 -137.5t-20.5 -131.5t-27 -117.5t-26.5 -94.5q-98 -301 -262 -301q-168 0 -262 301q-14 43 -28.5 99.5t-27 120t-19.5 132t-7 140.5zM105 1599q0 123 45 171t113 48 q12 0 39.5 -8t57.5 -17t56.5 -16.5t40.5 -7.5q6 0 8 2q-2 2 -2 51l164 2q0 -129 -44 -175t-112 -46q-31 0 -64.5 7.5t-62 16.5t-49 17t-28.5 8q2 0 2 -51zM187 1149q0 -63 9 -134t21.5 -134.5t25.5 -113.5t21 -75q61 -188 105 -188q10 0 31.5 24.5t46 84t50 157.5t44.5 246 q4 33 5 64.5t1 64.5q0 78 -12 128t-43 83q-35 37 -123 37q-55 0 -91 -17.5t-56.5 -49.5t-27.5 -77t-7 -100zM254 113q0 113 115 112q117 0 117 -112q0 -113 -117 -113q-115 0 -115 113z" />
<glyph unicode="&#xf6;" horiz-adv-x="743" d="M29 1133q0 86 16.5 163.5t56 136t105 92.5t166.5 34q159 -1 241 -89q57 -59 80 -151t23 -197q0 -68 -8 -137.5t-20.5 -131.5t-27 -117.5t-26.5 -94.5q-98 -301 -262 -301q-168 0 -262 301q-14 43 -28.5 99.5t-27 120t-19.5 132t-7 140.5zM156 1692q0 35 22.5 59.5 t55.5 24.5q35 0 57.5 -25t22.5 -59q0 -35 -22.5 -58.5t-57.5 -23.5q-33 0 -55.5 23.5t-22.5 58.5zM191 1149q0 -63 9 -134t21.5 -134.5t25.5 -113.5t21 -75q61 -188 105 -188q10 0 31.5 24.5t46 84t50 157.5t44.5 246q4 33 5 64.5t1 64.5q0 78 -12 128t-43 83 q-35 37 -123 37q-55 0 -91 -17.5t-56.5 -49.5t-27.5 -77t-7 -100zM258 113q0 113 115 112q117 0 117 -112q0 -113 -117 -113q-115 0 -115 113zM439 1692q0 35 23.5 59.5t55.5 24.5q33 0 56.5 -25t23.5 -59q0 -35 -23.5 -58.5t-56.5 -23.5t-56 23.5t-23 58.5z" />
<glyph unicode="&#xf7;" horiz-adv-x="655" d="M41 375v178h575v-178h-575zM246 199q0 88 86 88q84 0 84 -88q0 -82 -84 -82q-86 0 -86 82zM246 719q0 86 86 86q84 0 84 -86q0 -82 -84 -82q-86 0 -86 82z" />
<glyph unicode="&#xf8;" horiz-adv-x="761" d="M35 1133q0 86 16.5 163.5t56 136t105.5 92.5t166 34q92 0 160 -31l10 24h158l-52 -125q39 -61 53.5 -143t14.5 -166q0 -68 -8 -136.5t-20.5 -131t-27 -116.5t-26.5 -93q-102 -301 -262 -301q-78 0 -139 63l-29 -65h-160l92 225q-14 33 -32.5 92.5t-36 135t-28.5 163.5 t-11 179zM197 1149q0 -78 13.5 -167t29.5 -163q2 -4 2 -14l233 569q-35 18 -96 19q-55 0 -91 -17.5t-56.5 -49.5t-27.5 -77t-7 -100zM264 113q0 113 115 112q117 0 117 -112q0 -113 -117 -113q-115 0 -115 113zM313 588q35 -84 66 -84q10 0 30.5 24.5t46 84t51.5 158 t44 245.5q6 61 6 125v43z" />
<glyph unicode="&#xf9;" horiz-adv-x="653" d="M27 434q0 104 13 232.5t32.5 263.5t41 268t35.5 248q0 8 -5 26.5t-13 37t-19.5 31.5t-23.5 15h235q-8 -147 -29.5 -298.5t-45 -296t-41 -275.5t-17.5 -237q0 -51 6.5 -102.5t22.5 -93.5t48 -67.5t81 -25.5q18 2 68 28v1268q0 47 -45 100h249q-45 -53 -45 -100v-1350 q0 -74 50 -106h-72q-23 0 -39 6t-33 29q-41 -23 -78 -30t-73 -7q-68 0 -123.5 32.5t-95 90t-62 137.5t-22.5 176zM99 1837h256l110 -229h-147z" />
<glyph unicode="&#xfa;" horiz-adv-x="657" d="M31 434q0 104 13 232.5t32.5 263.5t41 268t35.5 248q0 8 -5 26.5t-13 37t-19.5 31.5t-23.5 15h235q-8 -147 -29.5 -298.5t-45 -296t-41 -275.5t-17.5 -237q0 -51 6.5 -102.5t22.5 -93.5t48 -67.5t81 -25.5q18 2 68 28v1268q0 47 -45 100h249q-45 -53 -45 -100v-1350 q0 -74 50 -106h-72q-23 0 -39 6t-33 29q-41 -23 -78 -30t-73 -7q-68 0 -123.5 32.5t-95 90t-62 137.5t-22.5 176zM264 1616l111 229h256l-217 -229h-150z" />
<glyph unicode="&#xfb;" horiz-adv-x="645" d="M21 434q0 104 13 232.5t32.5 263.5t41 268t35.5 248q0 8 -5 26.5t-13 37t-19.5 31.5t-23.5 15h235q-8 -147 -29.5 -298.5t-45 -296t-41 -275.5t-17.5 -237q0 -51 6.5 -102.5t22.5 -93.5t48 -67.5t81 -25.5q18 2 68 28v1268q0 47 -45 100h249q-45 -53 -45 -100v-1350 q0 -74 50 -106h-72q-23 0 -39 6t-33 29q-41 -23 -78 -30t-73 -7q-68 0 -123.5 32.5t-95 90t-62 137.5t-22.5 176zM111 1622l109 229h270l108 -229h-147l-98 100l-95 -100h-147z" />
<glyph unicode="&#xfc;" horiz-adv-x="651" d="M25 434q0 104 13 232.5t32.5 263.5t41 268t35.5 248q0 8 -5 26.5t-13 37t-19.5 31.5t-23.5 15h235q-8 -147 -29.5 -298.5t-45 -296t-41 -275.5t-17.5 -237q0 -51 6.5 -102.5t22.5 -93.5t48 -67.5t81 -25.5q18 2 68 28v1268q0 47 -45 100h249q-45 -53 -45 -100v-1350 q0 -74 50 -106h-72q-23 0 -39 6t-33 29q-41 -23 -78 -30t-73 -7q-68 0 -123.5 32.5t-95 90t-62 137.5t-22.5 176zM137 1684q0 35 22.5 59.5t55.5 24.5q35 0 57.5 -25t22.5 -59q0 -35 -22.5 -58.5t-57.5 -23.5q-33 0 -55.5 23.5t-22.5 58.5zM420 1684q0 35 23.5 59.5 t55.5 24.5q33 0 56.5 -25t23.5 -59q0 -35 -23.5 -58.5t-56.5 -23.5t-56 23.5t-23 58.5z" />
<glyph unicode="&#xfd;" horiz-adv-x="526" d="M33 1229q0 162 6 327h168q-4 -84 -8 -164.5t-4 -160.5q0 -137 14 -259t59 -233q39 100 53.5 210t14.5 239q0 92 -2 183t-4 185h166q2 -90 4 -177t2 -173q0 -164 -21.5 -318.5t-103.5 -291.5q-12 -23 -21.5 -40t-9.5 -40v-397q0 -82 49 -119h-258q49 37 49 119v397 q0 27 -9 42t-19 38q-43 70 -69 143.5t-38 152.5t-15 162t-3 175zM164 1608l111 229h256l-217 -229h-150z" />
<glyph unicode="&#xfe;" horiz-adv-x="552" d="M29 0q49 31 49 106l-8 1350q0 47 -41 100h245q-41 -53 -41 -100v-121q43 -2 92.5 -6t91.5 -20.5t69.5 -50t27.5 -95.5q0 -109 -19.5 -210t-41.5 -179q-41 -145 -154 -287q-20 -31 -38.5 -88t-18.5 -131v-162q0 -76 47 -106h-260zM233 1171l5 -452q20 27 39.5 58.5 t35 79.5t25.5 116.5t10 171.5q0 20 -27.5 23t-87.5 3z" />
<glyph unicode="&#xff;" horiz-adv-x="518" d="M25 1229q0 162 6 327h168q-4 -84 -8 -164.5t-4 -160.5q0 -137 14 -259t59 -233q39 100 53.5 210t14.5 239q0 92 -2 183t-4 185h166q2 -90 4 -177t2 -173q0 -164 -21.5 -318.5t-103.5 -291.5q-12 -23 -21.5 -40t-9.5 -40v-397q0 -82 49 -119h-258q49 37 49 119v397 q0 27 -9 42t-19 38q-43 70 -69 143.5t-38 152.5t-15 162t-3 175zM27 1684q0 35 22.5 59.5t55.5 24.5q35 0 57.5 -25t22.5 -59q0 -35 -22.5 -58.5t-57.5 -23.5q-33 0 -55.5 23.5t-22.5 58.5zM310 1684q0 35 23.5 59.5t55.5 24.5q33 0 56.5 -25t23.5 -59q0 -35 -23.5 -58.5 t-56.5 -23.5t-56 23.5t-23 58.5z" />
<glyph unicode="&#x152;" horiz-adv-x="923" d="M27 1159q0 51 2 98.5t10 92.5t25.5 88t46.5 88q6 43 327 43q166 0 422 -13q-2 -16 -2 -33.5v-33.5q0 -119 33 -215l-37 -14q-18 43 -42 86t-54 43h-170v-170h117q47 0 69 65l35 -4l-55 -307l-39 6q0 76 -41 76h-86v-895h170q31 0 54.5 43t41.5 88l37 -15 q-33 -98 -33 -213v-31.5t2 -31.5h-575q-72 125 -121 269.5t-80 295t-44 302t-13 292.5zM188 1223q4 -141 13.5 -290t34 -296.5t68.5 -288.5t116 -264q4 12 4 22v1250q-14 25 -32.5 33t-49.5 8q-49 0 -79 -9.5t-47 -29t-22.5 -53t-5.5 -82.5z" />
<glyph unicode="&#x153;" horiz-adv-x="935" d="M2 1159q0 51 2 98.5t10.5 92.5t25.5 88t46 88q6 43 328 43q166 0 422 -13q-2 -16 -2 -33.5v-33.5q0 -119 32 -215l-37 -14q-18 43 -41.5 86t-54.5 43h-170v-170h117q47 0 70 65l34 -4l-55 -307l-39 6q0 76 -41 76h-86v-895h170q31 0 54.5 43t41.5 88l37 -15 q-33 -98 -32 -213v-31.5t2 -31.5h-576q-72 125 -121 269.5t-79.5 295t-44 302t-13.5 292.5zM164 1223q4 -141 13 -290t34 -296.5t69 -288.5t115 -264q4 12 4 22v1250q-14 25 -32.5 33t-49.5 8q-49 0 -78.5 -9.5t-47 -29t-22.5 -53t-5 -82.5z" />
<glyph unicode="&#x178;" horiz-adv-x="495" d="M2 1229q0 162 6 327h168q-4 -84 -8 -164.5t-4 -160.5q0 -137 14 -259t59 -233q39 100 53.5 210t14.5 239q0 92 -2 183t-4 185h166q2 -90 4 -177t2 -173q0 -164 -21.5 -318.5t-103.5 -291.5q-12 -23 -21.5 -40t-9.5 -40v-397q0 -82 49 -119h-258q49 37 49 119v397 q0 27 -9 42t-19 38q-43 70 -69 143.5t-38 152.5t-15 162t-3 175zM29 1692q0 35 22.5 59.5t55.5 24.5q35 0 57.5 -25t22.5 -59q0 -35 -22.5 -58.5t-57.5 -23.5q-33 0 -55.5 23.5t-22.5 58.5zM312 1692q0 35 23.5 59.5t55.5 24.5q33 0 56.5 -25t23.5 -59q0 -35 -23.5 -58.5 t-56.5 -23.5t-56 23.5t-23 58.5z" />
<glyph unicode="&#x2c6;" horiz-adv-x="2131" d="M-215 1655l109 229h270l108 -229h-147l-98 100l-95 -100h-147z" />
<glyph unicode="&#x2dc;" horiz-adv-x="851" d="M207 1630q0 123 45 171t113 48q12 0 39.5 -8t57.5 -17t56.5 -16.5t40.5 -7.5q6 0 8 2q-2 2 -2 51l164 2q0 -129 -44 -175t-112 -46q-31 0 -64.5 7.5t-62 16.5t-49 17t-28.5 8q2 0 2 -51z" />
<glyph unicode="&#x2000;" horiz-adv-x="1009" />
<glyph unicode="&#x2001;" horiz-adv-x="2019" />
<glyph unicode="&#x2002;" horiz-adv-x="1009" />
<glyph unicode="&#x2003;" horiz-adv-x="2019" />
<glyph unicode="&#x2004;" horiz-adv-x="673" />
<glyph unicode="&#x2005;" horiz-adv-x="504" />
<glyph unicode="&#x2006;" horiz-adv-x="336" />
<glyph unicode="&#x2007;" horiz-adv-x="336" />
<glyph unicode="&#x2008;" horiz-adv-x="252" />
<glyph unicode="&#x2009;" horiz-adv-x="403" />
<glyph unicode="&#x200a;" horiz-adv-x="112" />
<glyph unicode="&#x2010;" horiz-adv-x="602" d="M37 393q29 51 88 78t124.5 46.5t124 40t85.5 63.5l116 -68q-37 -63 -101 -96t-131 -52.5t-121 -35t-70 -45.5zM37 596q20 37 54 60.5t76 39t86 26.5t85 24.5t72.5 31t48.5 47.5l116 -67q-37 -63 -101 -96t-131 -52.5t-121 -35t-70 -46.5z" />
<glyph unicode="&#x2011;" horiz-adv-x="602" d="M37 393q29 51 88 78t124.5 46.5t124 40t85.5 63.5l116 -68q-37 -63 -101 -96t-131 -52.5t-121 -35t-70 -45.5zM37 596q20 37 54 60.5t76 39t86 26.5t85 24.5t72.5 31t48.5 47.5l116 -67q-37 -63 -101 -96t-131 -52.5t-121 -35t-70 -46.5z" />
<glyph unicode="&#x2012;" horiz-adv-x="602" d="M37 393q29 51 88 78t124.5 46.5t124 40t85.5 63.5l116 -68q-37 -63 -101 -96t-131 -52.5t-121 -35t-70 -45.5zM37 596q20 37 54 60.5t76 39t86 26.5t85 24.5t72.5 31t48.5 47.5l116 -67q-37 -63 -101 -96t-131 -52.5t-121 -35t-70 -46.5z" />
<glyph unicode="&#x2013;" horiz-adv-x="638" d="M33 375v178h575v-178h-575z" />
<glyph unicode="&#x2014;" horiz-adv-x="849" d="M31 375v178h790v-178h-790z" />
<glyph unicode="&#x2018;" horiz-adv-x="284" d="M35 1327q0 25 4 57.5t17.5 65.5t37 60.5t62.5 43.5q18 6 41 7q20 0 43 -7q-29 -10 -49.5 -26.5t-33 -37t-17.5 -39.5t-5 -32q0 -8 2 -12q84 0 84 -92q0 -35 -24.5 -56.5t-73.5 -21.5q-88 0 -88 90z" />
<glyph unicode="&#x2019;" horiz-adv-x="278" d="M33 1239q29 8 49 25.5t32.5 37t17.5 39t5 33.5q0 4 -1 6t-1 6q-84 0 -84 91q0 37 23.5 58t72.5 21q90 0 91 -86q0 -92 -40 -153.5t-81 -77.5q-18 -8 -41 -8q-25 0 -43 8z" />
<glyph unicode="&#x201a;" horiz-adv-x="264" d="M23 -150q29 8 49 26t32.5 38t17.5 39.5t5 34.5q0 4 -1 6t-1 6q-84 0 -84 90q0 78 100 78q86 0 86 -86q0 -90 -40 -153t-81 -79q-23 -6 -40 -6q-23 0 -43 6z" />
<glyph unicode="&#x201c;" horiz-adv-x="552" d="M25 1317q0 45 11 85t29.5 69.5t40 50t41.5 28.5q18 6 41 6q20 0 43 -6q-29 -10 -49 -26.5t-32.5 -37t-17.5 -40t-5 -31.5q0 -8 2 -12q84 0 84 -92q0 -78 -100 -78q-88 0 -88 84zM309 1317q0 45 11.5 85t30 69.5t40 50t41.5 28.5q18 6 41 6q20 0 43 -6q-59 -18 -81.5 -61 t-22.5 -72q0 -10 2 -14q84 0 84 -92q0 -78 -101 -78q-88 0 -88 84z" />
<glyph unicode="&#x201d;" horiz-adv-x="548" d="M31 1239q29 8 49 25.5t32.5 37t17.5 39t5 33.5q0 4 -1 6t-1 6q-84 0 -84 91q0 37 23.5 58t72.5 21q90 0 91 -86q0 -92 -40 -153.5t-81 -77.5q-18 -8 -41 -8q-25 0 -43 8zM313 1239q57 16 81 58t24 73q0 12 -2 16q-82 0 -82 91q0 37 23.5 58t72.5 21q90 0 90 -86 q0 -92 -40 -153.5t-81 -77.5q-18 -8 -41 -8q-27 0 -45 8z" />
<glyph unicode="&#x201e;" horiz-adv-x="571" d="M27 -150q29 8 49 26t32.5 38t17.5 39.5t5 34.5q0 4 -1 6t-1 6q-84 0 -84 90q0 78 100 78q86 0 86 -86q0 -90 -39.5 -153t-80.5 -79q-23 -6 -41 -6q-23 0 -43 6zM309 -150q29 8 49.5 24.5t32.5 36t17.5 39t5.5 34.5q0 12 -2 16q-82 0 -82 90q0 78 100 78q86 0 86 -86 q0 -90 -40 -153t-81 -79q-23 -6 -41 -6q-25 0 -45 6z" />
<glyph unicode="&#x2022;" horiz-adv-x="329" d="M45 623q0 29 12.5 50t29.5 34.5t36 19.5t33 6q57 0 86.5 -31.5t29.5 -78.5q0 -51 -34.5 -80t-81.5 -29q-53 0 -82 35t-29 74z" />
<glyph unicode="&#x2026;" horiz-adv-x="759" d="M41 82q0 86 86 86q84 0 84 -86q0 -82 -84 -82q-86 0 -86 82zM297 82q0 86 86 86q84 0 84 -86q0 -82 -84 -82q-86 0 -86 82zM553 82q0 86 86 86q84 0 84 -86q0 -82 -84 -82q-86 0 -86 82z" />
<glyph unicode="&#x202f;" horiz-adv-x="403" />
<glyph unicode="&#x2039;" horiz-adv-x="694" d="M55 549v178l576 324v-177l-426 -239l430 -260v-176l-576 348v6z" />
<glyph unicode="&#x203a;" horiz-adv-x="638" d="M0 199v176l430 260l-426 239v177l576 -324v-178z" />
<glyph unicode="&#x205f;" horiz-adv-x="504" />
<glyph unicode="&#x20ac;" horiz-adv-x="581" d="M29 967l20 88h62q-2 16 -2 34.5v38.5h-80l20 86h60q0 76 13 140.5t50 109.5t103.5 71t175.5 26h36.5t40.5 -2l-18 -216q-12 33 -31.5 43.5t-54.5 10.5q-49 0 -79 -9.5t-47 -29t-22.5 -53t-5.5 -82.5v-9h189l-21 -86h-168q2 -20 2 -36.5t2 -30.5v-6h146l-21 -88h-118 q8 -123 26.5 -253t51 -255t81.5 -243t121 -216h-194q-61 104 -104.5 223t-73 243t-47 251t-25.5 250h-88z" />
<glyph unicode="&#x2122;" horiz-adv-x="827" d="M0 1421q14 41 14 92v21.5t-2 21.5h260q-2 -10 -2 -18v-16q0 -51 17 -101l-19 -8q-8 23 -19 43.5t-26 20.5h-41v-617q0 -37 25 -51h-127q25 14 24 51v617h-43q-14 0 -25 -20.5t-20 -43.5zM301 809q23 16 23 51v647q0 27 -21 49h62q31 0 53 -20t38.5 -48t27 -57.5 t16.5 -50.5q18 72 52 124t83 52h61q-20 -23 -20 -49v-647q0 -37 24 -51h-125q23 16 23 51v570q-16 -45 -27.5 -93.5t-18.5 -93.5t-10 -84t-3 -65h-78q0 25 -3 64.5t-11.5 85.5t-19.5 95.5t-26 90.5v-570q0 -37 25 -51h-125z" />
<glyph unicode="&#x25fc;" horiz-adv-x="1556" d="M0 0v1556h1556v-1556h-1556z" />
</font>
</defs>
</svg>
